<svg width="468" height="242" viewBox="0 0 468 242" fill="none" xmlns="http://www.w3.org/2000/svg">
<path d="M299.038 110.673C283.06 100.901 270.055 86.5468 261.139 69.713C251.223 51.0131 234.527 35.9062 213.006 28.4398C168.083 12.8543 119.067 36.4094 102.891 81.1348C91.3693 113.01 99.7461 147.376 121.506 170.5L143.68 154L155.68 192.725C177.181 200.251 199.625 198.789 218.951 190.366C236.495 182.712 255.695 179.399 274.37 181.584" stroke="white" stroke-width="4" stroke-miterlimit="10" stroke-linecap="round" stroke-linejoin="round"/>
<path d="M302.608 188.67L274.616 181.065L298.871 111.153L325.617 122.538" stroke="white" stroke-width="4" stroke-miterlimit="10" stroke-linecap="round" stroke-linejoin="round"/>
<path d="M335.967 132.368L316.88 187.383C315.64 190.957 311.761 192.894 308.268 191.682L307.753 191.503C304.26 190.291 302.414 186.368 303.653 182.795L322.74 127.779C323.98 124.205 327.86 122.269 331.352 123.48L331.868 123.659C335.36 124.871 337.207 128.794 335.967 132.368Z" stroke="white" stroke-width="4" stroke-miterlimit="10" stroke-linecap="round" stroke-linejoin="round"/>
<path d="M350.138 137.284L331.051 192.3C329.811 195.874 325.728 197.739 321.986 196.441L321.433 196.249C317.691 194.951 315.64 190.957 316.88 187.383L335.967 132.368C337.207 128.794 341.291 126.928 345.033 128.227L345.585 128.418C349.327 129.717 351.378 133.71 350.138 137.284Z" stroke="white" stroke-width="4" stroke-miterlimit="10" stroke-linecap="round" stroke-linejoin="round"/>
<path d="M363.365 141.873L344.278 196.889C343.038 200.463 339.159 202.399 335.666 201.187L335.151 201.008C331.658 199.797 329.812 195.874 331.051 192.3L350.138 137.284C351.378 133.71 355.258 131.774 358.75 132.986L359.266 133.165C362.758 134.376 364.605 138.299 363.365 141.873Z" stroke="white" stroke-width="4" stroke-miterlimit="10" stroke-linecap="round" stroke-linejoin="round"/>
<path d="M98.7087 102.321L142.396 91.5209L156.361 128.395L188.224 99.8136L219.252 118.852L255.258 108.724" stroke="white" stroke-width="4" stroke-miterlimit="10" stroke-linecap="round" stroke-linejoin="round"/>
<path d="M189.588 99.7007L175.244 74.0305L194.535 44.2011L162.961 26.9545" stroke="white" stroke-width="4" stroke-miterlimit="10" stroke-linecap="round" stroke-linejoin="round"/>
<path d="M173.296 113.101L179.239 145.664L198.484 162.419L173.561 185.141L197.262 196.567" stroke="white" stroke-width="4" stroke-miterlimit="10" stroke-linecap="round" stroke-linejoin="round"/>
<path d="M2 153H106.5" stroke="white" stroke-width="4" stroke-linecap="round" stroke-linejoin="round"/>
<path d="M361 153H465.5" stroke="white" stroke-width="4" stroke-linecap="round" stroke-linejoin="round"/>
<path d="M86.1248 177.821L102.476 189.216L122.828 202.611L106.172 208.143L101.517 223.675L76 229L71.7812 213.705L47.5624 198.41L76.8436 188.116L86.1248 177.821Z" stroke="white" stroke-width="4" stroke-linecap="round" stroke-linejoin="round"/>
</svg>
