<?xml version="1.0" encoding="UTF-8"?>
<svg width="150px" height="100px" viewBox="0 0 150 100" version="1.1" xmlns="http://www.w3.org/2000/svg" xmlns:xlink="http://www.w3.org/1999/xlink">
    <!-- Generator: Sketch 47.1 (45422) - http://www.bohemiancoding.com/sketch -->
    <title>blogpost</title>
    <desc>Created with Sketch.</desc>
    <defs></defs>
    <g id="Page-1" stroke="none" stroke-width="1" fill="none" fill-rule="evenodd">
        <g id="blogpost">
            <g id="Group-2" transform="translate(34.000000, 23.000000)">
                <g id="Group" transform="translate(7.000000, 28.000000)">
                    <g id="Group-4">
                        <rect id="Rectangle" fill="#FF6B6B" x="0" y="0" width="66" height="5"></rect>
                        <g id="Group-3" transform="translate(0.000000, 9.000000)" stroke="#FF6B6B" stroke-linecap="square">
                            <path d="M0.805555556,1.5 L57.1944444,1.5" id="Line"></path>
                            <path d="M0.8,6.5 L39.2,6.5" id="Line"></path>
                            <path d="M0.806451613,11.5 L49.1935484,11.5" id="Line"></path>
                        </g>
                    </g>
                </g>
                <rect id="Rectangle-2" stroke="#FF6B6B" stroke-width="2" x="-1" y="-1" width="85" height="57"></rect>
                <g id="editor-images-pictures-photos-collection-glyph" transform="translate(31.000000, 5.000000)">
                    <g id="path-1-link" fill="#FF6B6B">
                        <path d="M7.39339432,2.72752088 L11.1563517,9.54125015 C11.2026562,9.62509552 11.3026663,9.64699832 11.3768959,9.59226186 L14.5689791,7.23843659 C14.7183909,7.1282611 14.9173548,7.16669704 15.0171276,7.33043986 L20.8184689,14.4282791 C20.9165628,14.5892665 20.8456379,14.7197727 20.6724355,14.7197727 L0.270599458,14.7197727 C0.0913765072,14.7197727 0.0135074899,14.5834647 0.0981393623,14.4123581 L7.07396919,2.73186624 C7.15794505,2.56208581 7.30262491,2.56316132 7.39339432,2.72752088 Z M18.0107656,3.98076923 C18.968015,3.98076923 19.7440191,3.16713289 19.7440191,2.16346154 C19.7440191,1.15979017 18.968015,0.346153846 18.0107656,0.346153846 C17.0535161,0.346153846 16.277512,1.15979017 16.277512,2.16346154 C16.277512,3.16713289 17.0535161,3.98076923 18.0107656,3.98076923 Z" id="path-1"></path>
                    </g>
                    <path d="M7.39339432,2.72752088 L11.1563517,9.54125015 C11.2026562,9.62509552 11.3026663,9.64699832 11.3768959,9.59226186 L14.5689791,7.23843659 C14.7183909,7.1282611 14.9173548,7.16669704 15.0171276,7.33043986 L20.8184689,14.4282791 C20.9165628,14.5892665 20.8456379,14.7197727 20.6724355,14.7197727 L0.270599458,14.7197727 C0.0913765072,14.7197727 0.0135074899,14.5834647 0.0981393623,14.4123581 L7.07396919,2.73186624 C7.15794505,2.56208581 7.30262491,2.56316132 7.39339432,2.72752088 Z M18.0107656,3.98076923 C18.968015,3.98076923 19.7440191,3.16713289 19.7440191,2.16346154 C19.7440191,1.15979017 18.968015,0.346153846 18.0107656,0.346153846 C17.0535161,0.346153846 16.277512,1.15979017 16.277512,2.16346154 C16.277512,3.16713289 17.0535161,3.98076923 18.0107656,3.98076923 Z" id="path-1"></path>
                </g>
            </g>
        </g>
    </g>
</svg>