<?xml version="1.0" encoding="UTF-8"?>
<svg width="150px" height="100px" viewBox="0 0 150 100" version="1.1" xmlns="http://www.w3.org/2000/svg" xmlns:xlink="http://www.w3.org/1999/xlink">
    <!-- Generator: Sketch 47.1 (45422) - http://www.bohemiancoding.com/sketch -->
    <title>panel</title>
    <desc>Created with Sketch.</desc>
    <defs></defs>
    <g id="Page-1" stroke="none" stroke-width="1" fill="none" fill-rule="evenodd">
        <g id="panel">
            <g id="Group-2" transform="translate(50.000000, 18.000000)">
                <g id="Group-3">
                    <rect id="Rectangle-4" stroke="#FF6B6B" stroke-width="2" x="-1" y="-1" width="52" height="68"></rect>
                    <rect id="Rectangle" fill="#FF6B6B" x="4.16666667" y="39.2658228" width="40.8333333" height="5.01265823"></rect>
                    <path d="M5.25543213,5.01265823 C5.11436086,5.01265823 5,5.11551245 5,5.24130317 L5,33.1890766 C5,33.3153538 5.11474609,33.4177215 5.25543213,33.4177215 L44.744568,33.4177215 C44.8856391,33.4177215 45,33.3148673 45,33.1890766 L45,5.24130317 C45,5.11502606 44.8852538,5.01265823 44.744568,5.01265823 L5.25543213,5.01265823 Z" id="path-1-path" fill="#FFFFFF"></path>
                    <path d="M19.8449062,11.7997576 L25.7549509,21.8306307 C25.827676,21.9540642 25.9847504,21.9863085 26.1013343,21.9057279 L31.1147725,18.4405297 C31.3494364,18.2783342 31.6619263,18.3349179 31.8186279,18.5759729 L40.930128,29.0251002 C41.0841927,29.2620988 40.9727992,29.4542243 40.7007701,29.4542243 L8.65795087,29.4542243 C8.37646598,29.4542243 8.25416606,29.2535576 8.38708762,29.0016619 L19.3432218,11.8061547 C19.4751131,11.5562114 19.7023451,11.5577947 19.8449062,11.7997576 Z" id="path-1-path" fill="#FF6B6B"></path>
                    <path d="M37.6666667,13.6002355 C39.139426,13.6002355 40.3333333,12.4172235 40.3333333,10.957904 C40.3333333,9.4985846 39.139426,8.31557256 37.6666667,8.31557256 C36.1939074,8.31557256 35,9.4985846 35,10.957904 C35,12.4172235 36.1939074,13.6002355 37.6666667,13.6002355 Z" id="path-1-path" fill="#FF6B6B"></path>
                    <path d="M12.0833333,48.8734177 L37.0972184,48.8734177" id="Line" stroke="#FF6B6B" stroke-linecap="square"></path>
                    <path d="M16.25,53.0506329 L34.5833333,53.0506329" id="Line" stroke="#FF6B6B" stroke-linecap="square"></path>
                </g>
                <rect id="Rectangle" fill="#FFFFFF" x="7" y="55" width="35" height="3" rx="1.5"></rect>
            </g>
        </g>
    </g>
</svg>