<?xml version="1.0" encoding="UTF-8"?>
<svg width="150px" height="100px" viewBox="0 0 150 100" version="1.1" xmlns="http://www.w3.org/2000/svg" xmlns:xlink="http://www.w3.org/1999/xlink">
    <!-- Generator: Sketch 47.1 (45422) - http://www.bohemiancoding.com/sketch -->
    <title>job_carrousell</title>
    <desc>Created with Sketch.</desc>
    <defs></defs>
    <g id="Page-1" stroke="none" stroke-width="1" fill="none" fill-rule="evenodd">
        <g id="job_carrousell">
            <g id="Group-3" transform="translate(27.000000, 19.000000)">
                <g id="Group">
                    <path d="M84,43 L10,43 L10,51 L-1,51 L-1,-1 L97,-1 L97,51 L84,51 L84,43 Z" id="Rectangle-5" stroke="#FF6B6B" stroke-width="2"></path>
                    <g id="editor-images-pictures-photos-collection-glyph" transform="translate(26.000000, 6.000000)" fill="#FF6B6B">
                        <g id="path-1-link">
                            <path d="M15.138855,5.45504176 L22.8439583,19.0825003 C22.9387721,19.250191 23.1435547,19.2939966 23.2955487,19.1845237 L29.8317191,14.4768732 C30.1376575,14.2565222 30.5450599,14.3333941 30.7493566,14.6608797 L42.6282935,28.8565582 C42.8291523,29.1785331 42.6839252,29.4395455 42.3292727,29.4395455 L0.554084604,29.4395455 C0.187104277,29.4395455 0.0276581936,29.1669294 0.200952028,28.8247161 L14.4847941,5.46373249 C14.6567446,5.12417162 14.9529939,5.12632264 15.138855,5.45504176 Z M36.8791866,7.96153846 C38.8392689,7.96153846 40.4282297,6.33426579 40.4282297,4.32692308 C40.4282297,2.31958034 38.8392689,0.692307692 36.8791866,0.692307692 C34.9191043,0.692307692 33.3301435,2.31958034 33.3301435,4.32692308 C33.3301435,6.33426579 34.9191043,7.96153846 36.8791866,7.96153846 Z" id="path-1"></path>
                        </g>
                    </g>
                </g>
                <g id="Group-2" transform="translate(14.000000, 47.000000)">
                    <rect id="Rectangle-4" stroke="#FF6B6B" x="-0.5" y="-0.5" width="22" height="17"></rect>
                    <g id="Group" transform="translate(2.100000, 2.133333)">
                        <path d="M0.107281494,0 C0.048031561,0 0,0.0437736476 0,0.0973088236 L0,11.9915801 C0,12.0453223 0.0481933592,12.0888889 0.107281494,12.0888889 L16.6927186,12.0888889 C16.7519684,12.0888889 16.8,12.0451152 16.8,11.9915801 L16.8,0.0973088236 C16.8,0.043566648 16.7518066,0 16.6927186,0 L0.107281494,0 Z" id="path-1-path" fill="#FFFFFF"></path>
                        <path d="M6.2348606,2.88851638 L8.71707938,7.15754789 C8.74762391,7.21007984 8.81359515,7.22380269 8.86256039,7.18950845 L10.9682045,5.71475742 C11.0667633,5.64572875 11.198009,5.66981017 11.2638237,5.77240057 L15.0906538,10.2194366 C15.1553609,10.3203006 15.1085757,10.4020672 14.9943234,10.4020672 L1.53633937,10.4020672 C1.41811571,10.4020672 1.36674975,10.3166656 1.4225768,10.2094615 L6.02415318,2.89123889 C6.07954749,2.78486572 6.17498494,2.78553956 6.2348606,2.88851638 Z" id="path-1-path" fill="#FF6B6B"></path>
                        <path d="M13.72,3.65478036 C14.3385589,3.65478036 14.84,3.15130318 14.84,2.53023256 C14.84,1.90916193 14.3385589,1.40568475 13.72,1.40568475 C13.1014411,1.40568475 12.6,1.90916193 12.6,2.53023256 C12.6,3.15130318 13.1014411,3.65478036 13.72,3.65478036 Z" id="path-1-path" fill="#FF6B6B"></path>
                    </g>
                </g>
                <rect id="Rectangle" fill="#FF6B6B" x="40" y="47" width="38" height="5"></rect>
            </g>
            <path d="M67.5,74.5 L94.5185122,74.5" id="Line" stroke="#FF6B6B" stroke-linecap="square"></path>
            <path d="M67.5,78.5 L85.5277564,78.5" id="Line" stroke="#FF6B6B" stroke-linecap="square"></path>
            <polyline id="Path-7" stroke="#FF6B6B" points="35 39 32 41.5 35 44"></polyline>
            <polyline id="Path-7" stroke="#FF6B6B" transform="translate(116.500000, 41.500000) scale(-1, 1) translate(-116.500000, -41.500000) " points="118 39 115 41.5 118 44"></polyline>
        </g>
    </g>
</svg>