<?xml version="1.0" encoding="UTF-8"?>
<svg width="150px" height="100px" viewBox="0 0 150 100" version="1.1" xmlns="http://www.w3.org/2000/svg" xmlns:xlink="http://www.w3.org/1999/xlink">
    <!-- Generator: Sketch 47.1 (45422) - http://www.bohemiancoding.com/sketch -->
    <title>column</title>
    <desc>Created with Sketch.</desc>
    <defs></defs>
    <g id="Page-1" stroke="none" stroke-width="1" fill="none" fill-rule="evenodd">
        <g id="column" stroke="#FF6B6B">
            <g id="Group-3" transform="translate(24.000000, 17.000000)">
                <rect id="Rectangle" stroke-width="2" x="1" y="1" width="30" height="65"></rect>
                <rect id="Rectangle" stroke-width="2" x="36" y="1" width="30" height="65"></rect>
                <rect id="Rectangle" stroke-width="2" x="71" y="1" width="30" height="65"></rect>
                <g id="Group-2" transform="translate(9.000000, 27.000000)" stroke-linecap="square">
                    <path d="M7,0.722222222 L7,12.2777778" id="Line"></path>
                    <g id="Group" transform="translate(7.000000, 6.500000) rotate(90.000000) translate(-7.000000, -6.500000) translate(5.000000, 0.000000)">
                        <path d="M2,0.722222222 L2,12.2777778" id="Line"></path>
                    </g>
                </g>
                <g id="Group-2" transform="translate(46.000000, 27.000000)" stroke-linecap="square">
                    <path d="M5.5,0.611111111 L5.5,10.3888889" id="Line"></path>
                    <g id="Group" transform="translate(5.500000, 5.500000) rotate(90.000000) translate(-5.500000, -5.500000) translate(4.000000, 0.000000)">
                        <path d="M1.5,0.611111111 L1.5,10.3888889" id="Line"></path>
                    </g>
                </g>
                <g id="Group-2" transform="translate(80.000000, 27.000000)" stroke-linecap="square">
                    <path d="M5.5,0.611111111 L5.5,10.3888889" id="Line"></path>
                    <g id="Group" transform="translate(5.500000, 5.500000) rotate(90.000000) translate(-5.500000, -5.500000) translate(4.000000, 0.000000)">
                        <path d="M1.5,0.611111111 L1.5,10.3888889" id="Line"></path>
                    </g>
                </g>
            </g>
        </g>
    </g>
</svg>