<?xml version="1.0" encoding="utf-8"?>
<!-- Generator: Adobe Illustrator 24.2.1, SVG Export Plug-In . SVG Version: 6.00 Build 0)  -->
<svg version="1.1" id="Ebene_1" xmlns="http://www.w3.org/2000/svg" xmlns:xlink="http://www.w3.org/1999/xlink" x="0px" y="0px"
	 viewBox="0 0 150 100" style="enable-background:new 0 0 150 100;" xml:space="preserve">
<style type="text/css">
	.st0{fill:none;stroke:#AAAAAA;stroke-width:2;}
	.st1{fill:none;stroke:#CCCCCC;stroke-width:2;}
	.st2{fill:none;stroke:#CCCCCC;stroke-width:2;stroke-dasharray:5,5;}
	.st3{fill:none;stroke:#CCCCCC;stroke-width:2;stroke-dasharray:4.6154,4.6154;}
	.st4{fill:none;stroke:#AAAAAA;stroke-linecap:square;}
</style>
<desc>Created with Sketch.</desc>
<g id="Page-1">
	<g id="column">
		<g id="Group-3" transform="translate(24.000000, 17.000000)">
			<rect id="Rectangle" x="1" y="1" class="st0" width="30" height="65"/>
			<g id="Rectangle_1_">
				<g>
					<polyline class="st1" points="36,3.5 36,1 38.5,1 					"/>
					<line class="st2" x1="43.5" y1="1" x2="61" y2="1"/>
					<polyline class="st1" points="63.5,1 66,1 66,3.5 					"/>
					<line class="st3" x1="66" y1="8.1" x2="66" y2="61.2"/>
					<polyline class="st1" points="66,63.5 66,66 63.5,66 					"/>
					<line class="st2" x1="58.5" y1="66" x2="41" y2="66"/>
					<polyline class="st1" points="38.5,66 36,66 36,63.5 					"/>
					<line class="st3" x1="36" y1="58.9" x2="36" y2="5.8"/>
				</g>
			</g>
			<g id="Rectangle_2_">
				<g>
					<polyline class="st1" points="71,3.5 71,1 73.5,1 					"/>
					<line class="st2" x1="78.5" y1="1" x2="96" y2="1"/>
					<polyline class="st1" points="98.5,1 101,1 101,3.5 					"/>
					<line class="st3" x1="101" y1="8.1" x2="101" y2="61.2"/>
					<polyline class="st1" points="101,63.5 101,66 98.5,66 					"/>
					<line class="st2" x1="93.5" y1="66" x2="76" y2="66"/>
					<polyline class="st1" points="73.5,66 71,66 71,63.5 					"/>
					<line class="st3" x1="71" y1="58.9" x2="71" y2="5.8"/>
				</g>
			</g>
			<g id="Group-2" transform="translate(9.000000, 27.000000)">
				<path id="Line" class="st4" d="M7,0.7v11.6"/>

					<g id="Group" transform="translate(7.000000, 6.500000) rotate(90.000000) translate(-7.000000, -6.500000) translate(5.000000, 0.000000)">
					<path id="Line_1_" class="st4" d="M2,0.7v11.6"/>
				</g>
			</g>
		</g>
	</g>
</g>
</svg>
