<?xml version="1.0" encoding="iso-8859-1"?>
<!-- Generator: Adobe Illustrator 21.0.0, SVG Export Plug-In . SVG Version: 6.00 Build 0)  -->
<svg xmlns="http://www.w3.org/2000/svg" xmlns:xlink="http://www.w3.org/1999/xlink" version="1.1" id="Capa_1" x="0px" y="0px" viewBox="0 0 512 512" style="enable-background:new 0 0 512 512;" xml:space="preserve" width="50px" height="50px">
<g>
	<g>
		<path d="M143.777,136.275c-21.816,0-39.564,17.749-39.564,39.564c0,21.815,17.749,39.564,39.564,39.564    c21.816,0,39.565-17.749,39.565-39.564C183.341,154.024,165.592,136.275,143.777,136.275z M143.777,200.404    c-13.545,0-24.564-11.02-24.564-24.564s11.02-24.564,24.564-24.564s24.565,11.02,24.565,24.564S157.321,200.404,143.777,200.404z" fill="#FFFFFF"/>
	</g>
</g>
<g>
	<g>
		<path d="M312.113,320.646c-21.815,0-39.564,17.748-39.564,39.564c0,21.816,17.749,39.564,39.564,39.564    s39.564-17.749,39.564-39.564C351.677,338.395,333.928,320.646,312.113,320.646z M312.114,384.772    c-13.544,0-24.564-11.02-24.564-24.564s11.019-24.564,24.564-24.564s24.564,11.02,24.564,24.564S325.658,384.772,312.114,384.772z    " fill="#FFFFFF"/>
	</g>
</g>
<g>
	<g>
		<path d="M159.808,304.613c-17.396,0-31.548,14.153-31.548,31.549c0,17.396,14.152,31.548,31.548,31.548    c17.396,0,31.549-14.152,31.549-31.548C191.357,318.766,177.204,304.613,159.808,304.613z M159.808,352.71    c-9.125,0-16.548-7.423-16.548-16.548s7.423-16.549,16.548-16.549c9.125,0,16.549,7.424,16.549,16.549    S168.933,352.71,159.808,352.71z" fill="#FFFFFF"/>
	</g>
</g>
<g>
	<g>
		<path d="M247.986,192.388c-12.975,0-23.532,10.557-23.532,23.532c0,12.976,10.557,23.532,23.532,23.532    c12.975,0,23.532-10.557,23.532-23.532C271.517,202.945,260.961,192.388,247.986,192.388z M247.986,224.452    c-4.704,0-8.532-3.828-8.532-8.532c0-4.704,3.827-8.532,8.532-8.532c4.705,0,8.532,3.828,8.532,8.532    C256.518,220.624,252.69,224.452,247.986,224.452z" fill="#FFFFFF"/>
	</g>
</g>
<g>
	<g>
		<path d="M406.999,324.791l-8.016-16.033c-1.852-3.705-6.357-5.208-10.062-3.354c-3.705,1.852-5.207,6.357-3.354,10.062    l8.016,16.033c1.314,2.629,3.962,4.148,6.714,4.148c1.127,0,2.271-0.255,3.348-0.793    C407.35,333.001,408.852,328.497,406.999,324.791z" fill="#FFFFFF"/>
	</g>
</g>
<g>
	<g>
		<path d="M334.854,268.679c-1.853-3.705-6.356-5.208-10.062-3.354l-16.032,8.016c-3.705,1.852-5.207,6.357-3.354,10.062    c1.314,2.628,3.962,4.147,6.714,4.147c1.127,0,2.271-0.255,3.348-0.793l16.032-8.016    C335.205,276.889,336.707,272.384,334.854,268.679z" fill="#FFFFFF"/>
	</g>
</g>
<g>
	<g>
		<path d="M102.388,260.662l-8.016-16.032c-1.852-3.705-6.357-5.208-10.062-3.354c-3.705,1.852-5.207,6.357-3.354,10.062    l8.016,16.032c1.314,2.628,3.962,4.147,6.714,4.147c1.127,0,2.271-0.255,3.348-0.793    C102.739,268.872,104.241,264.367,102.388,260.662z" fill="#FFFFFF"/>
	</g>
</g>
<g>
	<g>
		<path d="M222.63,396.935c-1.852-3.705-6.357-5.207-10.062-3.354l-16.032,8.016c-3.705,1.852-5.207,6.357-3.354,10.062    c1.314,2.628,3.962,4.147,6.714,4.147c1.127,0,2.271-0.255,3.348-0.793l16.032-8.016    C222.981,405.145,224.483,400.64,222.63,396.935z" fill="#FFFFFF"/>
	</g>
</g>
<g>
	<g>
		<path d="M221.225,90.376l-8.016-8.017c-2.928-2.929-7.677-2.929-10.606,0c-2.929,2.929-2.929,7.677,0,10.606l8.017,8.017    c1.464,1.465,3.384,2.197,5.303,2.197c1.919,0,3.839-0.732,5.303-2.197C224.154,98.054,224.154,93.306,221.225,90.376z" fill="#FFFFFF"/>
	</g>
</g>
<g>
	<g>
		<path d="M205.192,274.745l-8.016-8.016c-2.928-2.929-7.677-2.929-10.606,0c-2.929,2.929-2.929,7.678,0,10.606l8.016,8.016    c1.464,1.464,3.384,2.197,5.303,2.197c1.919,0,3.839-0.732,5.303-2.197C208.121,282.422,208.121,277.673,205.192,274.745z" fill="#FFFFFF"/>
	</g>
</g>
<g>
	<g>
		<path d="M288.066,432.87c-4.142,0-7.5,3.358-7.5,7.5v8.016c0,4.142,3.358,7.5,7.5,7.5s7.5-3.358,7.5-7.5v-8.016    C295.566,436.228,292.208,432.87,288.066,432.87z" fill="#FFFFFF"/>
	</g>
</g>
<g>
	<g>
		<path d="M253.289,130.457c-2.929-2.929-7.678-2.929-10.606,0l-8.016,8.016c-2.929,2.929-2.929,7.678,0,10.606    c1.464,1.464,3.384,2.197,5.303,2.197c1.919,0,3.839-0.733,5.303-2.197l8.016-8.016    C256.218,138.134,256.218,133.385,253.289,130.457z" fill="#FFFFFF"/>
	</g>
</g>
<g>
	<g>
		<path d="M430.049,46.013c-8.312-7.935-19.844-10.7-30.85-7.398l-25.318,7.596c-11.435,3.43-20.092,13.255-22.054,25.031    l-2.3,13.799c-2.472,14.839,5.957,29.444,20.043,34.726l20.361,7.636c3.576,1.341,7.328,2.006,11.072,2.006    c5.059,0,10.103-1.214,14.672-3.614c7.951-4.175,13.761-11.567,15.939-20.28l7.257-29.03    C441.658,65.338,438.36,53.947,430.049,46.013z M424.32,72.846l-7.257,29.03c-1.16,4.638-4.129,8.416-8.361,10.638    c-4.232,2.222-9.027,2.522-13.504,0.844l-20.361-7.636c-7.389-2.771-11.81-10.431-10.513-18.215l2.3-13.799    c1.029-6.177,5.57-11.331,11.568-13.13l25.318-7.596c1.604-0.481,3.229-0.716,4.833-0.716c4.17,0,8.2,1.591,11.349,4.597    C424.051,61.024,425.781,66.999,424.32,72.846z" fill="#FFFFFF"/>
	</g>
</g>
<g>
	<g>
		<path d="M481.551,179.395c-0.756-6.47-4.042-12.187-9.254-16.095l-10.637-7.978c-7.176-5.383-16.619-6.235-24.644-2.222    l-9.68,4.84c-11.129,5.564-16.007,18.881-11.106,30.318l7.789,18.173c3.251,7.584,10.066,12.824,18.231,14.016    c1.16,0.169,2.317,0.252,3.464,0.252c6.926,0,13.479-3.035,18.012-8.473l12.53-15.036    C480.426,192.185,482.307,185.865,481.551,179.395z M464.732,187.587l-12.53,15.036c-1.944,2.333-4.783,3.419-7.787,2.98    c-3.005-0.438-5.414-2.291-6.61-5.082l-7.789-18.173c-1.777-4.147-0.008-8.976,4.027-10.993l9.683-4.839    c1.217-0.609,2.524-0.909,3.824-0.909c1.806,0,3.597,0.58,5.11,1.714l10.637,7.978c1.89,1.417,3.082,3.49,3.355,5.836    C466.925,183.481,466.244,185.773,464.732,187.587z" fill="#FFFFFF"/>
	</g>
</g>
<g>
	<g>
		<path d="M488.468,88.18c-12.975,0-23.532,10.557-23.532,23.532c0,12.975,10.556,23.532,23.532,23.532S512,124.686,512,111.711    C512,98.737,501.443,88.18,488.468,88.18z M488.468,120.243c-4.704,0-8.532-3.828-8.532-8.532c0-4.704,3.827-8.532,8.532-8.532    s8.532,3.828,8.532,8.532C497,116.415,493.172,120.243,488.468,120.243z" fill="#FFFFFF"/>
	</g>
</g>
<g>
	<g>
		<path d="M504.446,284.35c-3.53-3.584-8.64-5.282-13.671-4.543c-3.424,0.502-6.897,0.757-10.323,0.757    c-31.672,0-59.458-20.258-69.146-50.412c-2.649-8.243-9.433-14.342-17.704-15.917c-56.806-10.815-98.036-60.676-98.036-118.558    c0-23.902,7-47.026,20.245-66.87c2.905-4.353,3.45-9.817,1.458-14.617c-1.996-4.809-6.261-8.288-11.408-9.307    c-25.516-5.053-51.697-6.19-77.811-3.377C175.79,7.133,127.081,28.688,87.187,63.844c-3.108,2.738-3.407,7.478-0.668,10.585    c2.738,3.107,7.478,3.407,10.585,0.668c37.556-33.095,83.391-53.385,132.551-58.676c24.608-2.65,49.267-1.58,73.292,3.178    c0.175,0.035,0.368,0.103,0.468,0.343c0.094,0.227,0.017,0.394-0.081,0.54c-14.895,22.318-22.768,48.321-22.768,75.196    c0,65.076,46.359,121.133,110.23,133.293c2.874,0.547,5.261,2.758,6.229,5.77c11.688,36.38,45.215,60.823,83.427,60.823    c4.153,0,8.359-0.309,12.502-0.917c0.553-0.082,0.835,0.245,0.847,0.328c-7.23,44.46-26.873,85.965-56.805,120.03    c-2.734,3.112-2.428,7.851,0.684,10.585c1.424,1.251,3.19,1.866,4.948,1.866c2.083,0,4.154-0.862,5.637-2.549    c31.793-36.184,52.659-80.28,60.341-127.523C509.389,292.58,507.873,287.83,504.446,284.35z" fill="#FFFFFF"/>
	</g>
</g>
<g>
	<g>
		<path d="M425.595,437.681c-2.735-3.109-7.475-3.412-10.585-0.676c-43.976,38.688-100.446,59.994-159.009,59.994    c-33.757,0-66.405-6.84-97.038-20.332c-29.596-13.034-55.911-31.618-78.212-55.235c-22.266-23.579-39.282-50.858-50.576-81.08    c-11.744-31.428-16.711-64.588-14.764-98.559c3.035-52.954,24.24-104.336,59.708-144.683c2.735-3.111,2.43-7.85-0.681-10.584    c-3.11-2.735-7.85-2.431-10.584,0.681c-37.67,42.85-60.192,97.444-63.418,153.728c-2.067,36.063,3.211,71.278,15.689,104.668    c11.999,32.108,30.073,61.086,53.721,86.127c23.685,25.082,51.635,44.819,83.072,58.665    c32.55,14.335,67.232,21.603,103.083,21.603c62.211,0,122.201-22.634,168.917-63.732    C428.028,445.53,428.331,440.791,425.595,437.681z" fill="#FFFFFF"/>
	</g>
</g>
<g>
</g>
<g>
</g>
<g>
</g>
<g>
</g>
<g>
</g>
<g>
</g>
<g>
</g>
<g>
</g>
<g>
</g>
<g>
</g>
<g>
</g>
<g>
</g>
<g>
</g>
<g>
</g>
<g>
</g>
</svg>
