<?xml version="1.0" encoding="UTF-8"?>
<svg width="48px" height="77px" viewBox="0 0 48 77" version="1.1" xmlns="http://www.w3.org/2000/svg" xmlns:xlink="http://www.w3.org/1999/xlink">
    <!-- Generator: sketchtool 53.2 (72643) - https://sketchapp.com -->
    <title>0BC73F13-96AD-4416-88CA-7CAF11BDE615</title>
    <desc>Created with sketchtool.</desc>
    <g id="Dekstop-Landing-Pages" stroke="none" stroke-width="1" fill="none" fill-rule="evenodd">
        <g id="Referal-Landing-Page" transform="translate(-182.000000, -1562.000000)">
            <g id="electricity-meter" transform="translate(183.000000, 1563.000000)">
                <rect id="Rectangle" stroke="#4DE9BF" stroke-width="1.5" x="0.46875" y="0" width="45" height="75" rx="4"></rect>
                <path d="M27.0685331,19.6875 L7.61896692,19.6875 C6.77628457,19.6875 6.09375,19.0260306 6.09375,18.2110058 L6.09375,11.7889942 C6.09375,10.9732312 6.77628457,10.3125 7.61896692,10.3125 L27.0685331,10.3125 C27.9104528,10.3125 28.59375,10.9732312 28.59375,11.7889942 L28.59375,18.2110058 C28.59375,19.0260306 27.9104528,19.6875 27.0685331,19.6875 Z" id="Stroke-3" stroke="#4DE9BF" stroke-width="1.5" stroke-linecap="round" stroke-linejoin="round"></path>
                <path d="M6.09375,29.53125 L27.65625,29.53125" id="Stroke-7" stroke="#4DE9BF" stroke-width="1.5" stroke-linecap="round" stroke-linejoin="round"></path>
                <path d="M6.09375,33.28125 L22.03125,33.28125" id="Stroke-9" stroke="#4DE9BF" stroke-width="1.5" stroke-linecap="round" stroke-linejoin="round"></path>
                <path d="M6.09375,37.03125 L24.84375,37.03125" id="Stroke-11" stroke="#4DE9BF" stroke-width="1.5" stroke-linecap="round" stroke-linejoin="round"></path>
                <path d="M6.09375,40.78125 L27.65625,40.78125" id="Stroke-13" stroke="#4DE9BF" stroke-width="1.5" stroke-linecap="round" stroke-linejoin="round"></path>
                <path d="M21.09375,24.84375 C21.09375,25.620528 21.723222,26.25 22.5,26.25 C23.276778,26.25 23.90625,25.620528 23.90625,24.84375 C23.90625,24.066972 23.276778,23.4375 22.5,23.4375 C21.723222,23.4375 21.09375,24.066972 21.09375,24.84375 Z" id="Stroke-15" fill="#4DE9BF"></path>
                <path d="M25.78125,24.84375 C25.78125,25.620528 26.410722,26.25 27.1875,26.25 C27.9634731,26.25 28.59375,25.620528 28.59375,24.84375 C28.59375,24.066972 27.9634731,23.4375 27.1875,23.4375 C26.410722,23.4375 25.78125,24.066972 25.78125,24.84375 Z" id="Stroke-17" fill="#4DE9BF"></path>
                <path d="M7.49568666,26.25 L8.44261582,26.25 C9.21299888,26.25 9.84375,25.6173082 9.84375,24.84375 C9.84375,24.0701918 9.21299888,23.4375 8.44261582,23.4375 L7.49568666,23.4375 C6.72450112,23.4375 6.09375,24.0701918 6.09375,24.84375 C6.09375,25.6173082 6.72450112,26.25 7.49568666,26.25 Z" id="Stroke-19" fill="#4DE9BF"></path>
                <path d="M6.24342112,5.3109375 L28.3161011,5.3109375" id="Stroke-21" stroke="#4DE9BF" stroke-width="1.5" stroke-linecap="round" stroke-linejoin="round"></path>
            </g>
        </g>
    </g>
</svg>