<?xml version="1.0" encoding="UTF-8"?>
<svg width="41px" height="67px" viewBox="0 0 41 67" version="1.1" xmlns="http://www.w3.org/2000/svg" xmlns:xlink="http://www.w3.org/1999/xlink">
    <!-- Generator: Sketch 53.2 (72643) - https://sketchapp.com -->
    <title>energy copy</title>
    <desc>Created with Sketch.</desc>
    <defs>
        <path d="M38.8267805,22.2604561 C38.6390897,21.87958 38.2347434,21.6351481 37.7890743,21.6351481 L24.219723,21.6351481 L37.6118107,1.66067811 C37.8350315,1.32759395 37.8489345,0.90585759 37.6473407,0.560734239 C37.4457468,0.214151593 37.0610965,0 36.6440058,0 L18.3221375,0 C17.8884404,0 17.4918181,0.231663137 17.2975619,0.598311094 L0.120762161,33.0508508 C-0.0568875881,33.3850294 -0.0371916376,33.7830522 0.170967525,34.1022731 C0.380671468,34.4211291 0.748329209,34.615945 1.14572397,34.615945 L12.9208128,34.615945 L0.0898665524,63.4034644 C-0.129106073,63.8956118 0.0655362607,64.4665611 0.547507754,64.7460162 C0.7332676,64.8529096 0.939109592,64.9050794 1.14417919,64.9050794 C1.47283123,64.9050794 1.79723512,64.7715538 2.02161448,64.5209199 L38.665351,23.4143939 C38.9526801,23.0922545 39.0144713,22.6420619 38.8267805,22.2604561" id="path-1"></path>
    </defs>
    <g id="Desktop-1440px" stroke="none" stroke-width="1" fill="none" fill-rule="evenodd">
        <g id="Homepage" transform="translate(-699.000000, -1525.000000)">
            <g id="energy-copy" transform="translate(700.000000, 1526.000000)">
                <mask id="mask-2" fill="white">
                    <use xlink:href="#path-1"></use>
                </mask>
                <use id="Mask" stroke="#4DE9BF" stroke-width="1.5" stroke-linecap="round" stroke-linejoin="round" xlink:href="#path-1"></use>
                <path d="M-7.18421053,27.2789964 C-3.80809661,24.0621211 0.9427711,22.4536835 7.06839261,22.4536835 C16.2568249,22.4536835 15.6337804,26.522435 20.9004015,26.522435 C26.1670226,26.522435 37.7152695,19.6031746 40.761411,19.6031746 C42.792172,19.6031746 44.1706684,39.1595306 44.8969002,78.2722425 L-5.67786898,75.6415154 L-7.18421053,27.2789964 Z" id="Mask" fill="#4DE9BF" fill-rule="nonzero" mask="url(#mask-2)"></path>
            </g>
        </g>
    </g>
</svg>