<?xml version="1.0" encoding="UTF-8"?>
<svg width="150px" height="100px" viewBox="0 0 150 100" version="1.1" xmlns="http://www.w3.org/2000/svg" xmlns:xlink="http://www.w3.org/1999/xlink">
    <!-- Generator: Sketch 47.1 (45422) - http://www.bohemiancoding.com/sketch -->
    <title>event_overview</title>
    <desc>Created with Sketch.</desc>
    <defs></defs>
    <g id="Page-1" stroke="none" stroke-width="1" fill="none" fill-rule="evenodd">
        <g id="event_overview">
            <g id="Group-2" transform="translate(24.000000, 45.000000)">
                <g id="Group" stroke="#FF6B6B">
                    <rect id="Rectangle-5" x="-0.5" y="-0.5" width="49" height="26"></rect>
                </g>
                <path d="M21.003992,7.88136703 L24.8565437,14.6950963 C24.9039506,14.7789417 25.0063419,14.8008445 25.0823389,14.746108 L28.3504241,12.3922827 C28.5033933,12.2821073 28.7070945,12.3205432 28.8092428,12.484286 L34.7487113,19.5821253 C34.8491407,19.7431127 34.7765272,19.8736189 34.5992009,19.8736189 L13.7116068,19.8736189 C13.5281167,19.8736189 13.4483936,19.7373109 13.5350405,19.5662042 L20.6769616,7.8857124 C20.7629368,7.71593197 20.9110615,7.71700747 21.003992,7.88136703 Z M31.8741578,9.13461538 C32.854199,9.13461538 33.6486794,8.32097905 33.6486794,7.31730769 C33.6486794,6.31363633 32.854199,5.5 31.8741578,5.5 C30.8941167,5.5 30.0996363,6.31363633 30.0996363,7.31730769 C30.0996363,8.32097905 30.8941167,9.13461538 31.8741578,9.13461538 Z" id="path-1" fill="#FF6B6B" opacity="0.119999997"></path>
                <rect id="Rectangle" fill="#FF6B6B" x="3.5" y="17.5" width="21.5" height="2.5"></rect>
                <path d="M3.75,21.75 L15.75,21.75" id="Line" stroke="#FF6B6B" stroke-width="0.5" stroke-linecap="square"></path>
                <circle id="Oval-2" fill="#FF6B6B" cx="6" cy="6" r="3"></circle>
            </g>
            <rect id="Rectangle-2" fill="#FF6B6B" x="43" y="31" width="19" height="5" rx="2.5"></rect>
            <rect id="Rectangle-2" fill="#FF6B6B" opacity="0.200000003" x="66" y="31" width="19" height="5" rx="2.5"></rect>
            <rect id="Rectangle-2" fill="#FF6B6B" opacity="0.200000003" x="88" y="31" width="19" height="5" rx="2.5"></rect>
            <g id="Group-2" transform="translate(78.000000, 45.000000)">
                <g id="Group" stroke="#FF6B6B">
                    <rect id="Rectangle-5" x="-0.5" y="-0.5" width="49" height="26"></rect>
                </g>
                <path d="M21.003992,7.88136703 L24.8565437,14.6950963 C24.9039506,14.7789417 25.0063419,14.8008445 25.0823389,14.746108 L28.3504241,12.3922827 C28.5033933,12.2821073 28.7070945,12.3205432 28.8092428,12.484286 L34.7487113,19.5821253 C34.8491407,19.7431127 34.7765272,19.8736189 34.5992009,19.8736189 L13.7116068,19.8736189 C13.5281167,19.8736189 13.4483936,19.7373109 13.5350405,19.5662042 L20.6769616,7.8857124 C20.7629368,7.71593197 20.9110615,7.71700747 21.003992,7.88136703 Z M31.8741578,9.13461538 C32.854199,9.13461538 33.6486794,8.32097905 33.6486794,7.31730769 C33.6486794,6.31363633 32.854199,5.5 31.8741578,5.5 C30.8941167,5.5 30.0996363,6.31363633 30.0996363,7.31730769 C30.0996363,8.32097905 30.8941167,9.13461538 31.8741578,9.13461538 Z" id="path-1" fill="#FF6B6B" opacity="0.119999997"></path>
                <rect id="Rectangle" fill="#FF6B6B" x="3.5" y="17.5" width="21.5" height="2.5"></rect>
                <path d="M3.75,21.75 L15.75,21.75" id="Line" stroke="#FF6B6B" stroke-width="0.5" stroke-linecap="square"></path>
                <circle id="Oval-2" fill="#FF6B6B" cx="6" cy="6" r="3"></circle>
            </g>
        </g>
    </g>
</svg>