<svg version="1.1" id="Ebene_1" xmlns="http://www.w3.org/2000/svg" x="0" y="0" viewBox="0 0 150 100" style="enable-background:new 0 0 150 100" xml:space="preserve"><style>.st0{fill:#aaa}.st2{fill:#fff}</style><path class="st0" d="M48.7 58.9v13.9h-14V58.9h14m2-2h-18v17.9h18V56.9zM61.6 67.3l1.7.5c-.3.9-.7 1.6-1.3 2.1s-1.4.7-2.3.7c-1.1 0-2.1-.4-2.8-1.2s-1.1-1.8-1.1-3.2c0-1.4.4-2.5 1.1-3.3s1.7-1.2 2.9-1.2c1.1 0 1.9.3 2.6.9.4.4.7.9.9 1.6l-1.7.4c-.1-.4-.3-.8-.6-1.1s-.7-.4-1.2-.4c-.6 0-1.2.2-1.5.7-.4.5-.6 1.2-.6 2.2 0 1.1.2 1.9.6 2.3s.9.7 1.5.7c.5 0 .9-.1 1.2-.4s.4-.7.6-1.3zM66.4 61.9V65c.5-.6 1.2-.9 1.9-.9.4 0 .7.1 1 .2s.5.3.7.5.3.5.3.7.1.7.1 1.2v3.7h-1.6v-3.3c0-.7 0-1.1-.1-1.2s-.2-.3-.3-.4-.4-.2-.6-.2c-.3 0-.5.1-.7.2s-.4.3-.5.6-.1.7-.1 1.2v3.1h-1.6v-8.6h1.5zM75.7 68.5l1.6.3c-.2.6-.5 1.1-1 1.4s-1 .5-1.7.5c-1.1 0-1.9-.4-2.4-1.1-.4-.6-.6-1.3-.6-2.1 0-1 .3-1.8.8-2.4s1.2-.9 2-.9c.9 0 1.7.3 2.2.9s.8 1.5.8 2.8h-4.1c0 .5.1.9.4 1.1s.6.4.9.4c.3 0 .5-.1.7-.2s.3-.4.4-.7zm.1-1.7c0-.5-.1-.8-.4-1.1s-.5-.4-.9-.4-.7.1-.9.4-.3.6-.3 1.1h2.5zM84.2 66.1l-1.6.3c-.1-.3-.2-.6-.4-.7s-.4-.2-.8-.2-.7.1-1 .4-.4.8-.4 1.4c0 .7.1 1.3.4 1.6s.6.5 1 .5c.3 0 .6-.1.8-.3s.3-.5.4-.9l1.6.3c-.2.7-.5 1.3-1 1.7s-1.1.6-1.9.6c-.9 0-1.6-.3-2.2-.9s-.8-1.4-.8-2.4.3-1.8.8-2.4 1.3-.9 2.2-.9c.8 0 1.4.2 1.8.5s.9.7 1.1 1.4zM85.4 70.5v-8.6H87v4.6l1.9-2.2h2l-2.1 2.3 2.3 3.9h-1.8l-1.6-2.8-.7.8v2h-1.6zM92 70.5v-8.6h1.6V65c.5-.6 1.1-.9 1.8-.9.8 0 1.4.3 1.9.8s.7 1.3.7 2.4c0 1.1-.3 1.9-.8 2.5s-1.1.9-1.8.9c-.4 0-.7-.1-1.1-.3s-.6-.4-.9-.8v.9H92zm1.7-3.3c0 .6.1 1.1.3 1.4.3.4.7.7 1.1.7.4 0 .7-.2.9-.5s.4-.8.4-1.5-.1-1.2-.4-1.5-.6-.5-1-.5-.7.2-1 .5-.3.8-.3 1.4zM99 67.3c0-.5.1-1.1.4-1.6s.7-.9 1.1-1.2 1-.4 1.7-.4c.9 0 1.7.3 2.3.9s.9 1.4.9 2.3c0 .9-.3 1.7-.9 2.3s-1.4.9-2.3.9c-.6 0-1.1-.1-1.6-.4s-.9-.6-1.2-1.1-.4-1-.4-1.7zm1.7.1c0 .6.1 1.1.4 1.4s.7.5 1.1.5.8-.2 1.1-.5.4-.8.4-1.4c0-.6-.1-1.1-.4-1.4s-.7-.5-1.1-.5-.8.2-1.1.5-.4.7-.4 1.4zM106 70.5l2.2-3.2-2.2-3h2l1.1 1.7 1.2-1.7h1.9l-2.1 2.9 2.3 3.3h-2l-1.3-1.9-1.3 1.9H106zM118.9 16.3h-5v2h5v-2zm-7 0h-5v2h5v-2zm-7 0h-5v2h5v-2zm-7 0h-5v2h5v-2zm-7 0h-5v2h5v-2zm-7 0h-5v2h5v-2zm-7 0h-5v2h5v-2zm-7 0h-5v2h5v-2zm-7 0h-5v2h5v-2zm-7 0h-5v2h5v-2zm-7 0h-5v2h5v-2zm-7 0h-5v2h5v-2zm-7 0h-5v2h5v-2zm-7 0h-3.7v2h3.7v-2zm-1.8 3.3h-2v5h2v-5zm0 7h-2v5h2v-5zm0 7h-2v5h2v-5zm0 7h-2v5h2v-5zm0 7h-2v5h2v-5zm0 7h-2v5h2v-5zm0 7h-2v5h2v-5zm0 7h-2v5h2v-5zm0 7h-2v5h2v-5zm1.9 6.1h-3.9v.9-.9 2H28v-2zm7 0h-5v2h5v-2zm7 0h-5v2h5v-2zm7 0h-5v2h5v-2zm7 0h-5v2h5v-2zm7 0h-5v2h5v-2zm7 0h-5v2h5v-2zm7 0h-5v2h5v-2zm7 0h-5v2h5v-2zm7 0h-5v2h5v-2zm7 0h-5v2h5v-2zm7 0h-5v2h5v-2zm7 0h-5v2h5v-2zm7 0h-5v2h5v-2zm6.9 0H121v2h4.8v-2h.1zm0-5.2h-2v5h2v-5zm0-7h-2v5h2v-5zm0-7h-2v5h2v-5zm0-7h-2v5h2v-5zm0-7h-2v5h2v-5zm0-7h-2v5h2v-5zm0-7h-2v5h2v-5zm0-7h-2v5h2v-5zm0-7h-2v5h2v-5zm0-4.2h-5v2h3v.2h2v-2.2z"/><path style="fill:none;stroke:#aaa;stroke-width:2" d="m36.6 64.9 5.1 4.5 5.1-8.9"/><path class="st0" d="M68.3 39.7H40.8a6.7 6.7 0 0 1 0-13.4h27.5a6.7 6.7 0 0 1 0 13.4z"/><path class="st2" d="M41.1 36.5v-6.9h4.7v1.2h-3.3v1.6h2.9v1.2h-2.9v2.9h-1.4zM46.7 33.1c0-.7.1-1.3.3-1.8.2-.4.4-.7.6-.9.3-.3.6-.5.9-.6.4-.2.9-.3 1.5-.3 1 0 1.8.3 2.4.9s.9 1.5.9 2.6-.3 2-.9 2.6c-.6.6-1.4.9-2.4.9s-1.8-.3-2.5-.9-.8-1.4-.8-2.5zm1.4-.1c0 .8.2 1.4.5 1.8.4.4.8.6 1.4.6.6 0 1-.2 1.4-.6.4-.4.5-1 .5-1.8s-.2-1.4-.5-1.8c-.3-.4-.8-.6-1.4-.6-.6 0-1 .2-1.4.6-.3.4-.5 1-.5 1.8zM54.5 36.5v-6.9h2.9c.7 0 1.3.1 1.6.2.3.1.6.3.8.7.2.3.3.7.3 1.1 0 .5-.2.9-.5 1.3-.3.3-.8.6-1.4.6.3.2.6.4.7.6.2.2.5.6.8 1.1l.8 1.3H59L58 35c-.4-.5-.6-.9-.7-1-.1-.1-.3-.2-.4-.3-.1-.1-.4-.1-.7-.1h-.3v2.9h-1.4zm1.3-4h1c.7 0 1.1 0 1.3-.1.2-.1.3-.2.4-.3.1-.1.1-.3.1-.5s-.1-.4-.2-.6c-.1-.1-.3-.2-.5-.3h-2.1v1.8zM61.4 36.5v-6.9h2.1l1.3 4.7 1.2-4.7h2.1v6.9h-1.3V31l-1.4 5.4h-1.3L62.7 31v5.4h-1.3z"/></svg>