<svg version="1.1" id="Ebene_1" xmlns="http://www.w3.org/2000/svg" x="0" y="0" viewBox="0 0 150 100" style="enable-background:new 0 0 150 100" xml:space="preserve"><style>.st0{fill:#aaa}.st1{fill:#fff}</style><path class="st0" d="M118.9 16.3h-5v2h5v-2zm-7 0h-5v2h5v-2zm-7 0h-5v2h5v-2zm-7 0h-5v2h5v-2zm-7 0h-5v2h5v-2zm-7 0h-5v2h5v-2zm-7 0h-5v2h5v-2zm-7 0h-5v2h5v-2zm-7 0h-5v2h5v-2zm-7 0h-5v2h5v-2zm-7 0h-5v2h5v-2zm-7 0h-5v2h5v-2zm-7 0h-5v2h5v-2zm-7 0h-3.7v2h3.7v-2zm-1.8 3.3h-2v5h2v-5zm0 7h-2v5h2v-5zm0 7h-2v5h2v-5zm0 7h-2v5h2v-5zm0 7h-2v5h2v-5zm0 7h-2v5h2v-5zm0 7h-2v5h2v-5zm0 7h-2v5h2v-5zm0 7h-2v5h2v-5zm1.9 6.1h-3.9v.9-.9 2H28v-2zm7 0h-5v2h5v-2zm7 0h-5v2h5v-2zm7 0h-5v2h5v-2zm7 0h-5v2h5v-2zm7 0h-5v2h5v-2zm7 0h-5v2h5v-2zm7 0h-5v2h5v-2zm7 0h-5v2h5v-2zm7 0h-5v2h5v-2zm7 0h-5v2h5v-2zm7 0h-5v2h5v-2zm7 0h-5v2h5v-2zm7 0h-5v2h5v-2zm6.9 0H121v2h4.8v-2h.1zm0-5.2h-2v5h2v-5zm0-7h-2v5h2v-5zm0-7h-2v5h2v-5zm0-7h-2v5h2v-5zm0-7h-2v5h2v-5zm0-7h-2v5h2v-5zm0-7h-2v5h2v-5zm0-7h-2v5h2v-5zm0-7h-2v5h2v-5zm0-4.2h-5v2h3v.2h2v-2.2zM33.3 57.9h83.4v15.9H33.3z"/><path class="st0" d="M115.7 58.9v13.9H34.3V58.9h81.4m2-2H32.3v17.9h85.4V56.9z"/><path class="st1" d="M56.6 62H60c.7 0 1.2 0 1.5.1s.6.2.9.4.5.4.7.7.3.6.3 1-.1.8-.3 1.1-.5.6-.9.8c.5.2.9.4 1.2.8s.4.8.4 1.3c0 .4-.1.8-.3 1.1s-.4.7-.7.9-.7.4-1.2.4c-.3 0-1 .1-2.1.1h-2.9V62zm1.7 1.5v2H60.7c.3 0 .5-.1.7-.3s.3-.4.3-.7c0-.3-.1-.5-.2-.6s-.4-.3-.7-.3h-2.5zm0 3.4v2.3h1.6c.6 0 1 0 1.2-.1.3 0 .5-.2.6-.3s.3-.5.3-.8c0-.3-.1-.5-.2-.7s-.3-.3-.5-.4-.7-.1-1.5-.1h-1.5zM69.3 70.6v-.9c-.2.3-.5.6-.9.8s-.8.3-1.2.3c-.4 0-.8-.1-1.1-.3s-.6-.4-.7-.8-.2-.8-.2-1.4v-3.9h1.6v2.9c0 .9 0 1.4.1 1.6s.2.4.3.5.4.2.6.2c.3 0 .5-.1.8-.2s.4-.3.5-.6.1-.8.1-1.7v-2.6h1.6v6.2h-1.5zM75.4 64.4v1.3h-1.1v3.4c0 .1.1.2.1.2s.2.1.3.1c.2 0 .4-.1.7-.2l.1 1.3c-.4.2-.8.2-1.3.2-.3 0-.6 0-.8-.1s-.4-.2-.5-.4-.2-.4-.2-.6c0-.2-.1-.6-.1-1.2v-2.7h-.8v-1.3h.8v-1.2l1.7-1v2.2h1.1zM79.4 64.4v1.3h-1.1v3.4c0 .1.1.2.1.2s.2.1.3.1c.2 0 .4-.1.7-.2l.1 1.3c-.4.2-.8.2-1.3.2-.3 0-.6 0-.8-.1s-.4-.2-.5-.4-.2-.4-.2-.6c0-.2-.1-.6-.1-1.2v-2.7h-.8v-1.3h.8v-1.2l1.7-1v2.2h1.1zM80.1 67.4c0-.5.1-1.1.4-1.6s.7-.9 1.1-1.2 1-.4 1.7-.4c.9 0 1.7.3 2.3.9s.9 1.4.9 2.3c0 .9-.3 1.7-.9 2.3s-1.4.9-2.3.9c-.6 0-1.1-.1-1.6-.4s-.9-.6-1.2-1.1-.4-1-.4-1.7zm1.7.1c0 .6.1 1.1.4 1.4s.7.5 1.1.5.8-.2 1.1-.5.4-.8.4-1.4c0-.6-.1-1.1-.4-1.4s-.7-.5-1.1-.5-.8.2-1.1.5-.4.8-.4 1.4zM93.5 70.6h-1.6v-3.2c0-.7 0-1.1-.1-1.3s-.2-.4-.3-.5-.3-.2-.6-.2-.5.1-.8.2-.4.4-.5.6-.1.7-.1 1.4v2.8h-1.6v-6.2h1.5v.9c.5-.7 1.2-1.1 2.1-1.1.4 0 .7.1 1 .2s.5.3.7.5.3.4.3.7.1.6.1 1.1v4.1z"/><path class="st0" d="M68.3 39.7H40.8a6.7 6.7 0 0 1 0-13.4h27.5a6.7 6.7 0 0 1 0 13.4z"/><path class="st1" d="M41.1 36.5v-6.9h4.7v1.2h-3.3v1.6h2.9v1.2h-2.9v2.9h-1.4zM46.7 33.1c0-.7.1-1.3.3-1.8.2-.4.4-.7.6-.9.3-.3.6-.5.9-.6.4-.2.9-.3 1.5-.3 1 0 1.8.3 2.4.9s.9 1.5.9 2.6-.3 2-.9 2.6c-.6.6-1.4.9-2.4.9s-1.8-.3-2.5-.9-.8-1.4-.8-2.5zm1.4-.1c0 .8.2 1.4.5 1.8.4.4.8.6 1.4.6.6 0 1-.2 1.4-.6.4-.4.5-1 .5-1.8s-.2-1.4-.5-1.8c-.3-.4-.8-.6-1.4-.6-.6 0-1 .2-1.4.6-.3.4-.5 1-.5 1.8zM54.5 36.5v-6.9h2.9c.7 0 1.3.1 1.6.2.3.1.6.3.8.7.2.3.3.7.3 1.1 0 .5-.2.9-.5 1.3-.3.3-.8.6-1.4.6.3.2.6.4.7.6.2.2.5.6.8 1.1l.8 1.3H59L58 35c-.4-.5-.6-.9-.7-1-.1-.1-.3-.2-.4-.3-.1-.1-.4-.1-.7-.1h-.3v2.9h-1.4zm1.3-4h1c.7 0 1.1 0 1.3-.1.2-.1.3-.2.4-.3.1-.1.1-.3.1-.5s-.1-.4-.2-.6c-.1-.1-.3-.2-.5-.3h-2.1v1.8zM61.4 36.5v-6.9h2.1l1.3 4.7 1.2-4.7h2.1v6.9h-1.3V31l-1.4 5.4h-1.3L62.7 31v5.4h-1.3z"/></svg>