<svg version="1.1" id="Ebene_1" xmlns="http://www.w3.org/2000/svg" x="0" y="0" viewBox="0 0 150 100" style="enable-background:new 0 0 150 100" xml:space="preserve"><style>.st0{fill:#aaa}.st1{fill:#fff}</style><path class="st0" d="M115.7 50.1v22.6H34.3V50.1h81.4m2-2H32.3v26.6h85.4V48.1zM118.9 16.3h-5v2h5v-2zm-7 0h-5v2h5v-2zm-7 0h-5v2h5v-2zm-7 0h-5v2h5v-2zm-7 0h-5v2h5v-2zm-7 0h-5v2h5v-2zm-7 0h-5v2h5v-2zm-7 0h-5v2h5v-2zm-7 0h-5v2h5v-2zm-7 0h-5v2h5v-2zm-7 0h-5v2h5v-2zm-7 0h-5v2h5v-2zm-7 0h-5v2h5v-2zm-7 0h-3.7v2h3.7v-2zm-1.8 3.3h-2v5h2v-5zm0 7h-2v5h2v-5zm0 7h-2v5h2v-5zm0 7h-2v5h2v-5zm0 7h-2v5h2v-5zm0 7h-2v5h2v-5zm0 7h-2v5h2v-5zm0 7h-2v5h2v-5zm0 7h-2v5h2v-5zm1.9 6.1h-3.9v.9-.9 2H28v-2zm7 0h-5v2h5v-2zm7 0h-5v2h5v-2zm7 0h-5v2h5v-2zm7 0h-5v2h5v-2zm7 0h-5v2h5v-2zm7 0h-5v2h5v-2zm7 0h-5v2h5v-2zm7 0h-5v2h5v-2zm7 0h-5v2h5v-2zm7 0h-5v2h5v-2zm7 0h-5v2h5v-2zm7 0h-5v2h5v-2zm7 0h-5v2h5v-2zm6.9 0H121v2h4.8v-2h.1zm0-5.2h-2v5h2v-5zm0-7h-2v5h2v-5zm0-7h-2v5h2v-5zm0-7h-2v5h2v-5zm0-7h-2v5h2v-5zm0-7h-2v5h2v-5zm0-7h-2v5h2v-5zm0-7h-2v5h2v-5zm0-7h-2v5h2v-5zm0-4.2h-5v2h3v.2h2v-2.2zM68.3 39.7H40.8a6.7 6.7 0 0 1 0-13.4h27.5a6.7 6.7 0 0 1 0 13.4z"/><path class="st1" d="M41.1 36.5v-6.9h4.7v1.2h-3.3v1.6h2.9v1.2h-2.9v2.9h-1.4zM46.7 33.1c0-.7.1-1.3.3-1.8.2-.4.4-.7.6-.9.3-.3.6-.5.9-.6.4-.2.9-.3 1.5-.3 1 0 1.8.3 2.4.9s.9 1.5.9 2.6-.3 2-.9 2.6c-.6.6-1.4.9-2.4.9s-1.8-.3-2.5-.9-.8-1.4-.8-2.5zm1.4-.1c0 .8.2 1.4.5 1.8.4.4.8.6 1.4.6.6 0 1-.2 1.4-.6.4-.4.5-1 .5-1.8s-.2-1.4-.5-1.8c-.3-.4-.8-.6-1.4-.6-.6 0-1 .2-1.4.6-.3.4-.5 1-.5 1.8zM54.5 36.5v-6.9h2.9c.7 0 1.3.1 1.6.2.3.1.6.3.8.7.2.3.3.7.3 1.1 0 .5-.2.9-.5 1.3-.3.3-.8.6-1.4.6.3.2.6.4.7.6.2.2.5.6.8 1.1l.8 1.3H59L58 35c-.4-.5-.6-.9-.7-1-.1-.1-.3-.2-.4-.3-.1-.1-.4-.1-.7-.1h-.3v2.9h-1.4zm1.3-4h1c.7 0 1.1 0 1.3-.1.2-.1.3-.2.4-.3.1-.1.1-.3.1-.5s-.1-.4-.2-.6c-.1-.1-.3-.2-.5-.3h-2.1v1.8zM61.4 36.5v-6.9h2.1l1.3 4.7 1.2-4.7h2.1v6.9h-1.3V31l-1.4 5.4h-1.3L62.7 31v5.4h-1.3z"/><path class="st0" d="M80.4 69.5c-.2 0-.4-.1-.6-.3L67.1 55.4c-.3-.3-.3-.8.1-1.1.3-.3.8-.3 1.1.1l12.6 13.9c.3.3.3.8-.1 1.1-.1 0-.3.1-.4.1z"/><path class="st0" d="M74 65.7h-.2c-.5 0-1-.1-1.5-.4-.5-.2-.9-.5-1.3-.9s-.6-.8-.8-1.3c-.2-.5-.2-1-.2-1.5s.1-1 .4-1.5c.2-.5.5-.9.9-1.3.3-.3.8-.3 1.1.1.3.3.3.8-.1 1.1-.5.4-.7 1-.8 1.6 0 .6.2 1.2.6 1.7.4.5 1 .7 1.6.8.6 0 1.2-.2 1.7-.6.3-.3.8-.3 1.1.1.3.3.3.8-.1 1.1-.4.4-.8.6-1.3.8-.2.2-.6.2-1.1.2z"/><path class="st0" d="M74.1 68.3c-1.6 0-3.1-.3-4.5-1-1.1-.5-2.1-1.2-3-2.1-1.5-1.5-2.2-3-2.2-3.1-.1-.2-.1-.4 0-.6 0 0 .4-.9 1.2-1.9.5-.6 1-1.2 1.5-1.6.7-.6 1.4-1.1 2.2-1.5.4-.2.9 0 1.1.3.2.4 0 .9-.3 1.1-.7.3-1.3.8-1.9 1.3-.5.4-.9.9-1.3 1.4-.4.5-.7 1-.8 1.3.3.5.8 1.4 1.8 2.3.8.7 1.6 1.3 2.5 1.8 1.1.5 2.4.8 3.7.8.7 0 1.3-.1 2-.2.7-.2 1.3-.4 1.9-.7.4-.2.9 0 1.1.4.2.4 0 .9-.4 1.1-.7.4-1.5.6-2.2.8-.8 0-1.6.1-2.4.1zM80.4 65.8c-.2 0-.4-.1-.6-.3-.3-.3-.3-.8.1-1.1.4-.4 1.1-1.1 1.7-2 .2-.3.3-.5.4-.6-.3-.5-.8-1.4-1.8-2.3-.8-.7-1.6-1.3-2.5-1.8-1.1-.5-2.4-.8-3.7-.8-.5 0-1 0-1.5.1-.4.1-.8-.2-.9-.7-.1-.4.2-.8.7-.9.6-.1 1.2-.1 1.8-.1 1.6 0 3 .3 4.4 1 1.1.5 2.1 1.2 3 2.1 1.5 1.5 2.2 3 2.2 3.1.1.2.1.4 0 .6 0 .1-.8 1.9-2.7 3.5-.2.2-.4.2-.6.2z"/><path class="st0" d="M77.2 62.3c-.4 0-.7-.3-.8-.7 0-.5-.3-1-.6-1.4-.3-.4-.8-.6-1.3-.7-.4-.1-.7-.5-.6-.9.1-.4.5-.7.9-.6.4.1.8.2 1.2.4.4.2.7.5 1 .8s.5.7.7 1c.2.4.3.8.3 1.2 0 .4-.3.8-.8.9z"/></svg>