<?xml version="1.0" encoding="UTF-8"?>
<svg width="150px" height="100px" viewBox="0 0 150 100" version="1.1" xmlns="http://www.w3.org/2000/svg" xmlns:xlink="http://www.w3.org/1999/xlink">
    <!-- Generator: Sketch 47.1 (45422) - http://www.bohemiancoding.com/sketch -->
    <title>googlemaps</title>
    <desc>Created with Sketch.</desc>
    <defs></defs>
    <g id="Page-1" stroke="none" stroke-width="1" fill="none" fill-rule="evenodd">
        <g id="googlemaps">
            <g id="Group-2" transform="translate(28.000000, 26.000000)">
                <rect id="Rectangle-9" stroke="#FF6B6B" stroke-width="2" x="-1" y="-1" width="97" height="49"></rect>
                <g id="Group" transform="translate(35.000000, 9.000000)" stroke="#FFFFFF" fill-rule="nonzero" fill="#FF6B6B">
                    <path d="M11.9975456,30 C11.7972674,30 11.5950258,29.9406774 11.4217459,29.818205 C10.9568846,29.4890604 0,21.6259488 0,11.6635836 C0,5.12279135 5.27202814,0 11.9970547,0 C18.7279719,0 24,5.12279135 24,11.6635836 C24,21.6278625 13.0396793,29.4895388 12.5762906,29.818205 C12.4035016,29.9406774 12.1992964,30 11.9975456,30 Z M11.9975456,1.9117178 C6.37208541,1.9117178 1.96400229,6.19442495 1.96400229,11.66167 C1.96400229,19.4252727 9.78466825,26.0961919 11.9975456,27.8318556 C14.210423,26.0985839 22.0369795,19.4157045 22.0369795,11.66167 C22.0369795,6.19633859 17.6269328,1.9117178 11.9975456,1.9117178 Z" id="Shape"></path>
                    <path d="M12,17 C9.24421053,17 7,14.7578947 7,12 C7,9.24210526 9.24421053,7 12,7 C14.7594737,7 17,9.24210526 17,12 C17,14.7578947 14.7573684,17 12,17 Z M12,9.10526316 C10.4042105,9.10526316 9.10526316,10.4042105 9.10526316,12 C9.10526316,13.5957895 10.4042105,14.8947368 12,14.8947368 C13.5978947,14.8947368 14.8947368,13.5957895 14.8947368,12 C14.8947368,10.4042105 13.6,9.10526316 12,9.10526316 Z" id="Shape"></path>
                </g>
            </g>
        </g>
    </g>
</svg>