<?xml version="1.0" encoding="utf-8"?>
<!-- Generator: Adobe Illustrator 22.0.0, SVG Export Plug-In . SVG Version: 6.00 Build 0)  -->
<svg version="1.1" id="Ebene_1" xmlns="http://www.w3.org/2000/svg" xmlns:xlink="http://www.w3.org/1999/xlink" x="0px" y="0px"
	 viewBox="0 0 150 100" style="enable-background:new 0 0 150 100;" xml:space="preserve">
<style type="text/css">
	.st0{fill:#FF6B6B;}
</style>
<title>headline</title>
<desc>Created with Sketch.</desc>
<g id="Page-1">
	<g id="headline">
		<g>
			<path id="Lorem-Ipsum" class="st0" d="M25,55.4h8V53h-5.1V41.1H25V55.4z M36.6,50c0,0.5,0,1.1,0,1.5c0,0.5,0.1,0.9,0.2,1.2
				c0.1,0.3,0.2,0.6,0.4,0.8s0.5,0.3,0.8,0.3c0.6,0,0.9-0.3,1.2-0.9c0.2-0.6,0.3-1.6,0.3-2.9c0-1.3-0.1-2.3-0.3-2.9
				c-0.2-0.6-0.6-0.9-1.2-0.9c-0.3,0-0.6,0.1-0.8,0.3s-0.3,0.4-0.4,0.8c-0.1,0.3-0.2,0.7-0.2,1.2C36.6,49,36.6,49.5,36.6,50z
				 M33.8,50c0-0.9,0.1-1.7,0.2-2.4s0.4-1.3,0.7-1.8s0.8-0.8,1.3-1.1c0.5-0.2,1.2-0.4,2-0.4s1.5,0.1,2.1,0.3s1,0.6,1.3,1.1
				s0.5,1.1,0.7,1.8c0.1,0.7,0.2,1.5,0.2,2.5c0,0.9-0.1,1.7-0.2,2.4c-0.1,0.7-0.4,1.3-0.7,1.8s-0.8,0.8-1.3,1s-1.2,0.3-2,0.3
				s-1.5-0.1-2.1-0.3s-1-0.6-1.3-1c-0.3-0.5-0.5-1.1-0.7-1.8S33.8,51,33.8,50z M43.8,44.7v10.8h2.8V49c0-0.4,0.1-0.7,0.2-0.9
				c0.1-0.2,0.3-0.4,0.5-0.6c0.2-0.2,0.4-0.3,0.7-0.3c0.2-0.1,0.5-0.1,0.7-0.1c0.1,0,0.3,0,0.4,0c0.1,0,0.3,0,0.4,0v-2.6
				c-0.1,0-0.2,0-0.2,0c-0.1,0-0.2,0-0.2,0c-0.6,0-1.1,0.2-1.5,0.5s-0.7,0.7-1,1.2l0,0v-1.4h-2.8V44.7z M55.6,48.8
				c0-0.4,0-0.8-0.1-1.1s-0.1-0.6-0.2-0.8c-0.1-0.2-0.2-0.4-0.4-0.5s-0.4-0.2-0.7-0.2s-0.5,0.1-0.7,0.2s-0.3,0.3-0.4,0.5
				c-0.1,0.2-0.2,0.4-0.2,0.7s-0.1,0.5-0.1,0.8v0.4C52.8,48.8,55.6,48.8,55.6,48.8z M52.8,50.5v0.9c0,0.3,0,0.6,0.1,0.9
				c0,0.3,0.1,0.6,0.2,0.8c0.1,0.2,0.2,0.4,0.4,0.6c0.2,0.1,0.4,0.2,0.6,0.2c0.5,0,0.8-0.2,1-0.5s0.4-0.8,0.4-1.5H58
				c-0.1,1.3-0.4,2.2-1,2.9s-1.6,1-2.9,1c-1,0-1.8-0.2-2.3-0.5c-0.6-0.3-1-0.8-1.2-1.3c-0.3-0.5-0.4-1.2-0.5-1.8
				c-0.1-0.7-0.1-1.4-0.1-2c0-0.7,0-1.4,0.1-2.1c0.1-0.7,0.3-1.3,0.6-1.8s0.7-0.9,1.3-1.2s1.3-0.5,2.2-0.5c0.8,0,1.5,0.1,2,0.4
				c0.5,0.3,0.9,0.6,1.2,1.1s0.5,1,0.6,1.7s0.2,1.4,0.2,2.2v0.6h-5.4V50.5z M59.7,44.7v10.8h2.8v-7.1c0-0.6,0.1-1.1,0.4-1.4
				c0.3-0.3,0.6-0.4,1.1-0.4c0.4,0,0.7,0.1,0.8,0.4c0.2,0.2,0.2,0.6,0.2,1v7.5h2.8v-7.1c0-0.6,0.1-1.1,0.4-1.4s0.6-0.4,1.1-0.4
				c0.4,0,0.7,0.1,0.8,0.4c0.2,0.2,0.2,0.6,0.2,1v7.5H73v-7.8c0-1-0.2-1.8-0.6-2.4c-0.4-0.6-1.1-0.8-2-0.8c-0.7,0-1.2,0.1-1.7,0.4
				s-0.8,0.7-1,1.3l0,0c-0.1-0.6-0.4-1-0.9-1.3s-1-0.4-1.6-0.4s-1.1,0.1-1.5,0.3s-0.8,0.6-1.2,1.1l0,0v-1.1L59.7,44.7L59.7,44.7z
				 M79.9,55.4h2.9V44.1h-2.9V55.4z M84.8,44.7h2.6v1.1l0,0c0.3-0.5,0.7-0.9,1-1.1c0.4-0.2,0.8-0.3,1.4-0.3c1.1,0,2,0.4,2.5,1.3
				c0.5,0.9,0.8,2.3,0.8,4.3s-0.3,3.4-0.8,4.3c-0.5,0.9-1.4,1.3-2.5,1.3c-0.5,0-1-0.1-1.3-0.3c-0.4-0.2-0.7-0.5-1-0.9l0,0v4.5h-2.8
				V44.7H84.8z M87.6,50c0,1.2,0.1,2.1,0.3,2.7c0.2,0.6,0.6,0.9,1.2,0.9s1-0.3,1.2-0.9c0.2-0.6,0.3-1.5,0.3-2.7s-0.1-2.1-0.3-2.6
				c-0.2-0.6-0.6-0.9-1.2-0.9s-1,0.3-1.2,0.9C87.7,48,87.6,48.9,87.6,50z M96.8,51.9h-2.5v0.4c0,0.5,0.1,1,0.2,1.4s0.3,0.8,0.6,1.1
				s0.7,0.5,1.2,0.7s1.2,0.2,1.9,0.2c0.6,0,1.1-0.1,1.6-0.2c0.5-0.1,0.9-0.3,1.3-0.6s0.6-0.6,0.8-1c0.2-0.4,0.3-0.9,0.3-1.5
				c0-0.8-0.2-1.5-0.5-1.9s-1-0.9-1.8-1.2l-1.7-0.6c-0.5-0.1-0.8-0.3-0.9-0.5c-0.2-0.2-0.2-0.5-0.2-0.7c0-0.4,0.1-0.7,0.4-0.9
				s0.6-0.3,0.9-0.3c0.5,0,0.8,0.1,1,0.4s0.3,0.7,0.3,1.2h2.5v-0.4c0-1-0.3-1.7-0.9-2.3c-0.6-0.5-1.5-0.8-2.8-0.8
				c-0.7,0-1.3,0.1-1.8,0.3s-0.9,0.4-1.2,0.7c-0.3,0.3-0.6,0.6-0.7,1s-0.2,0.8-0.2,1.2c0,0.8,0.2,1.4,0.6,1.9s1,0.9,1.7,1.1l1.9,0.7
				c0.3,0.1,0.5,0.2,0.7,0.4s0.3,0.4,0.3,0.8c0,0.4-0.1,0.7-0.4,1c-0.3,0.2-0.6,0.3-1,0.3c-0.5,0-0.8-0.1-1.1-0.4
				c-0.2-0.3-0.4-0.7-0.4-1.1v-0.4H96.8z M109.2,54.2v1.3h2.6V44.7H109v7.1c0,1.2-0.5,1.8-1.5,1.8c-0.4,0-0.7-0.1-0.9-0.3
				c-0.2-0.2-0.3-0.6-0.3-1.2v-7.4h-2.8v8c0,1.1,0.2,1.8,0.7,2.3s1.1,0.7,2,0.7c0.6,0,1.1-0.1,1.6-0.3
				C108.5,55.1,108.9,54.7,109.2,54.2L109.2,54.2z M113.7,44.7v10.8h2.8v-7.1c0-0.6,0.1-1.1,0.4-1.4s0.6-0.4,1.1-0.4
				c0.4,0,0.7,0.1,0.8,0.4c0.2,0.2,0.2,0.6,0.2,1v7.5h2.8v-7.1c0-0.6,0.1-1.1,0.4-1.4c0.3-0.3,0.6-0.4,1.1-0.4
				c0.4,0,0.7,0.1,0.8,0.4c0.2,0.2,0.2,0.6,0.2,1v7.5h2.8v-7.8c0-1-0.2-1.8-0.6-2.4c-0.4-0.6-1.1-0.8-2-0.8c-0.7,0-1.2,0.1-1.7,0.4
				s-0.8,0.7-1,1.3l0,0c-0.1-0.6-0.4-1-0.9-1.3s-1-0.4-1.6-0.4s-1.1,0.1-1.5,0.3s-0.8,0.6-1.2,1.1l0,0v-1.1L113.7,44.7L113.7,44.7z"
				/>
		</g>
		<rect x="79.9" y="39.7" class="st0" width="2.9" height="2.3"/>
	</g>
</g>
</svg>
