<?xml version="1.0" encoding="UTF-8"?>
<svg width="47px" height="77px" viewBox="0 0 47 77" version="1.1" xmlns="http://www.w3.org/2000/svg" xmlns:xlink="http://www.w3.org/1999/xlink">
    <!-- Generator: sketchtool 53.2 (72643) - https://sketchapp.com -->
    <title>FDD2E735-4EB6-4BF0-8752-019712AFD52E</title>
    <desc>Created with sketchtool.</desc>
    <g id="Dekstop-Landing-Pages" stroke="none" stroke-width="1" fill="none" fill-rule="evenodd">
        <g id="Referal-Landing-Page" transform="translate(-808.000000, -1562.000000)">
            <g id="iphone" transform="translate(808.000000, 1563.000000)">
                <rect id="Rectangle" stroke="#4DE9BF" stroke-width="1.5" x="1" y="0" width="45" height="75" rx="4"></rect>
                <path d="M20.1496711,5.6234375 L27.5,5.6234375" id="Stroke-21" stroke="#4DE9BF" stroke-width="1.5" stroke-linecap="round" stroke-linejoin="round"></path>
                <path d="M1,10.6234375 L46,10.6234375" id="Stroke-21-Copy-2" stroke="#4DE9BF" stroke-width="1.5" stroke-linecap="round" stroke-linejoin="round"></path>
                <path d="M1,64.6234375 L46,64.6234375" id="Stroke-21-Copy-3" stroke="#4DE9BF" stroke-width="1.5" stroke-linecap="round" stroke-linejoin="round"></path>
                <path d="M22.5,69.6234375 L25.4416226,69.6234375" id="Stroke-21-Copy" stroke="#4DE9BF" stroke-width="1.5" stroke-linecap="round" stroke-linejoin="round"></path>
                <path d="M25.2315991,39.3296961 C25.3250588,39.5552687 25.3717566,39.7937807 25.3717566,40.0454672 C25.3717566,40.2868023 25.3222629,40.5171657 25.2237663,40.7377336 C25.1250777,40.9579808 24.995122,41.152007 24.8343261,41.3195129 C24.67321,41.4877459 24.4837509,41.6185938 24.2656498,41.7129977 C24.0475274,41.807209 23.8138889,41.8546035 23.5646061,41.8546035 C23.3153234,41.8546035 23.0788676,41.8051131 22.855751,41.7051699 C22.6323143,41.6054406 22.4376475,41.4744857 22.2715372,41.3118776 C22.1052136,41.1495047 21.9754713,40.9579808 21.8819903,40.7377336 C21.7885092,40.5171657 21.7418328,40.2814769 21.7418328,40.0297903 C21.7418328,39.9246286 21.7504765,39.8218623 21.7676788,39.7212989 C21.7916466,39.5811688 21.8323898,39.4454018 21.8898017,39.3140192 C21.9882983,39.0886605 22.118254,38.8918111 22.2793487,38.7240914 C22.4401659,38.556393 22.6298172,38.4252243 22.8479396,38.3308204 C23.066062,38.2364166 23.2998072,38.1892146 23.5489833,38.1892146 C23.6833142,38.1892146 23.8121174,38.2025817 23.9353929,38.229316 C24.0503447,38.2541681 24.1604943,38.2906122 24.2656498,38.3384343 C24.3704852,38.3864704 24.4692805,38.4423555 24.5621213,38.5060471 C24.6623893,38.5747648 24.7557636,38.6526576 24.8421375,38.7397683 C25.0081624,38.9077875 25.1381181,39.1041235 25.2315991,39.3296961 Z M21.8196696,36.7886841 L21.8196696,31 L19,31 L19,44.0560054 L21.8196696,44.0560054 L21.8196696,43.1591689 C22.4219179,43.9250506 23.2422887,44.307692 24.2809739,44.307692 C24.8520405,44.307692 25.3842635,44.1947881 25.8777067,43.9695363 C26.3709365,43.7439637 26.7993699,43.4372474 27.1628574,43.0493019 C27.5262383,42.661335 27.8093919,42.2051852 28.0118701,41.6807455 C28.214455,41.1566053 28.3156407,40.5953793 28.3156407,39.9974098 C28.3156407,39.4103051 28.2169521,38.8569283 28.0196815,38.3378141 C27.8221975,37.8189993 27.5495872,37.3681749 27.2018292,36.9850202 C26.853559,36.6026995 26.4332572,36.2984856 25.9400274,36.072913 C25.4465841,35.8474474 24.9040527,35.7347787 24.3121129,35.7347787 C23.3151313,35.7347787 22.4839185,36.0861732 21.8196696,36.7886841 Z" id="Shape" fill="#4DE9BF"></path>
            </g>
        </g>
    </g>
</svg>