<?xml version="1.0" encoding="utf-8"?>
<!-- Generator: Adobe Illustrator 22.0.0, SVG Export Plug-In . SVG Version: 6.00 Build 0)  -->
<svg version="1.1" id="Ebene_1" xmlns="http://www.w3.org/2000/svg" xmlns:xlink="http://www.w3.org/1999/xlink" x="0px" y="0px"
	 viewBox="0 0 150 100" style="enable-background:new 0 0 150 100;" xml:space="preserve">
<style type="text/css">
	.st0{enable-background:new    ;}
	.st1{fill:#FF6B6B;}
</style>
<title>linklist</title>
<desc>Created with Sketch.</desc>
<g>
	<g class="st0">
		<path class="st1" d="M43.7,20.6h1.4v5h2.5v1.2h-3.9V20.6z"/>
		<path class="st1" d="M49.9,20.6v6.2h-1.4v-6.2H49.9z"/>
		<path class="st1" d="M51.1,26.9v-6.2h1.6l1.3,2.3c0.4,0.7,0.7,1.4,1,2.1h0c-0.1-0.8-0.1-1.7-0.1-2.6v-1.8h1.3v6.2h-1.5l-1.3-2.4
			c-0.4-0.7-0.8-1.5-1.1-2.2h0c0,0.8,0.1,1.7,0.1,2.7v1.9H51.1z"/>
		<path class="st1" d="M57.5,20.6h1.4v2.8h0c0.1-0.2,0.3-0.5,0.4-0.7l1.4-2.1h1.7l-2.1,2.7l2.2,3.6h-1.6l-1.5-2.7l-0.5,0.7v2h-1.4
			V20.6z"/>
		<path class="st1" d="M66.4,20.6V23h2.3v-2.4h1.4v6.2h-1.4v-2.6h-2.3v2.6H65v-6.2H66.4z"/>
		<path class="st1" d="M75.1,24.2h-2.3v1.5h2.6v1.2h-4v-6.2h3.8v1.2h-2.4v1.3h2.3V24.2z"/>
		<path class="st1" d="M77.8,25.3l-0.4,1.6h-1.5l1.9-6.2h1.8l1.9,6.2H80l-0.5-1.6H77.8z M79.3,24.2L79,22.9
			c-0.1-0.4-0.2-0.8-0.3-1.2h0c-0.1,0.4-0.2,0.8-0.3,1.2L78,24.2H79.3z"/>
		<path class="st1" d="M82.4,20.7c0.5-0.1,1.2-0.1,1.9-0.1c1.2,0,2,0.2,2.6,0.7c0.6,0.5,1.1,1.2,1.1,2.3c0,1.2-0.4,2-1,2.5
			c-0.7,0.5-1.7,0.8-2.9,0.8c-0.7,0-1.3,0-1.6-0.1V20.7z M83.8,25.8c0.1,0,0.3,0,0.5,0c1.3,0,2.1-0.7,2.1-2.2c0-1.3-0.8-2-2-2
			c-0.3,0-0.5,0-0.6,0.1V25.8z"/>
		<path class="st1" d="M88.8,20.6h1.4v5h2.5v1.2h-3.9V20.6z"/>
		<path class="st1" d="M95,20.6v6.2h-1.4v-6.2H95z"/>
		<path class="st1" d="M96.2,26.9v-6.2h1.6l1.3,2.3c0.4,0.7,0.7,1.4,1,2.1h0c-0.1-0.8-0.1-1.7-0.1-2.6v-1.8h1.3v6.2h-1.5l-1.3-2.4
			c-0.4-0.7-0.8-1.5-1.1-2.2h0c0,0.8,0.1,1.7,0.1,2.7v1.9H96.2z"/>
		<path class="st1" d="M106.3,24.2H104v1.5h2.6v1.2h-4v-6.2h3.8v1.2H104v1.3h2.3V24.2z"/>
	</g>
	<g class="st0">
		<path class="st1" d="M43.8,43.5H45v5.4h2.6v1h-3.8V43.5z"/>
		<path class="st1" d="M49,44.6c-0.4,0-0.6-0.3-0.6-0.6c0-0.4,0.3-0.6,0.7-0.6c0.4,0,0.6,0.3,0.7,0.6C49.7,44.3,49.4,44.6,49,44.6
			L49,44.6z M48.4,49.9v-4.6h1.2v4.6H48.4z"/>
		<path class="st1" d="M50.9,46.7c0-0.5,0-1,0-1.4h1l0.1,0.7h0c0.2-0.4,0.7-0.8,1.5-0.8c0.8,0,1.6,0.5,1.6,2v2.8h-1.2v-2.6
			c0-0.7-0.2-1.2-0.9-1.2c-0.5,0-0.8,0.3-0.9,0.7c0,0.1-0.1,0.2-0.1,0.4v2.7h-1.2V46.7z"/>
		<path class="st1" d="M57.5,47.3L57.5,47.3c0.1-0.2,0.3-0.4,0.4-0.5l1.1-1.5h1.4l-1.7,1.9l2,2.7h-1.4l-1.3-2l-0.4,0.5v1.6h-1.2
			v-6.8h1.2V47.3z"/>
		<path class="st1" d="M64.8,44.8L64.8,44.8l-1.2,0.6l-0.2-0.9l1.5-0.7h1v6.2h-1.1V44.8z"/>
	</g>
	<g class="st0">
		<path class="st1" d="M43.8,57.8H45v5.4h2.6v1h-3.8V57.8z"/>
		<path class="st1" d="M49,58.9c-0.4,0-0.6-0.3-0.6-0.6c0-0.4,0.3-0.6,0.7-0.6c0.4,0,0.6,0.3,0.7,0.6C49.7,58.6,49.4,58.9,49,58.9
			L49,58.9z M48.4,64.2v-4.6h1.2v4.6H48.4z"/>
		<path class="st1" d="M50.9,61c0-0.5,0-1,0-1.4h1l0.1,0.7h0c0.2-0.4,0.7-0.8,1.5-0.8c0.8,0,1.6,0.5,1.6,2v2.8h-1.2v-2.6
			c0-0.7-0.2-1.2-0.9-1.2c-0.5,0-0.8,0.3-0.9,0.7c0,0.1-0.1,0.2-0.1,0.4v2.7h-1.2V61z"/>
		<path class="st1" d="M57.5,61.6L57.5,61.6c0.1-0.2,0.3-0.4,0.4-0.5l1.1-1.5h1.4l-1.7,1.9l2,2.7h-1.4l-1.3-2l-0.4,0.5v1.6h-1.2
			v-6.8h1.2V61.6z"/>
		<path class="st1" d="M62.9,64.2v-0.7l0.7-0.7c1.5-1.3,2.1-2.1,2.2-2.9c0-0.6-0.3-1-1.1-1c-0.6,0-1,0.3-1.3,0.5L63,58.6
			c0.4-0.4,1.1-0.6,1.9-0.6c1.4,0,2,0.9,2,1.9c0,1.1-0.8,2-1.9,3l-0.5,0.5v0h2.5v1H62.9z"/>
	</g>
	<g class="st0">
		<path class="st1" d="M43.8,72.1H45v5.4h2.6v1h-3.8V72.1z"/>
		<path class="st1" d="M49,73.2c-0.4,0-0.6-0.3-0.6-0.6c0-0.4,0.3-0.6,0.7-0.6c0.4,0,0.6,0.3,0.7,0.6C49.7,72.9,49.4,73.2,49,73.2
			L49,73.2z M48.4,78.5v-4.6h1.2v4.6H48.4z"/>
		<path class="st1" d="M50.9,75.3c0-0.5,0-1,0-1.4h1l0.1,0.7h0c0.2-0.4,0.7-0.8,1.5-0.8c0.8,0,1.6,0.5,1.6,2v2.8h-1.2v-2.6
			c0-0.7-0.2-1.2-0.9-1.2c-0.5,0-0.8,0.3-0.9,0.7c0,0.1-0.1,0.2-0.1,0.4v2.7h-1.2V75.3z"/>
		<path class="st1" d="M57.5,75.9L57.5,75.9c0.1-0.2,0.3-0.4,0.4-0.5l1.1-1.5h1.4l-1.7,1.9l2,2.7h-1.4l-1.3-2l-0.4,0.5v1.6h-1.2
			v-6.8h1.2V75.9z"/>
		<path class="st1" d="M63.2,77.3c0.2,0.1,0.8,0.4,1.4,0.4c0.9,0,1.2-0.5,1.2-1c0-0.7-0.7-1-1.4-1h-0.5v-0.9h0.5
			c0.5,0,1.2-0.2,1.2-0.9c0-0.4-0.3-0.8-1-0.8c-0.5,0-1,0.2-1.3,0.4l-0.3-0.8c0.4-0.2,1-0.5,1.8-0.5c1.3,0,1.9,0.7,1.9,1.5
			c0,0.6-0.4,1.2-1.1,1.4v0c0.8,0.1,1.4,0.7,1.4,1.5c0,1-0.9,1.9-2.4,1.9c-0.8,0-1.4-0.2-1.7-0.4L63.2,77.3z"/>
	</g>
	<rect x="43.1" y="34.3" class="st1" width="21.9" height="1.1"/>
</g>
</svg>
