<?xml version="1.0" encoding="UTF-8"?>
<svg width="37px" height="42px" viewBox="0 0 37 42" version="1.1" xmlns="http://www.w3.org/2000/svg" xmlns:xlink="http://www.w3.org/1999/xlink">
    <!-- Generator: Sketch 53.2 (72643) - https://sketchapp.com -->
    <title>Lock</title>
    <desc>Created with Sketch.</desc>
    <g id="Desktop-1440px" stroke="none" stroke-width="1" fill="none" fill-rule="evenodd">
        <g id="Homepage" transform="translate(-428.000000, -1801.000000)" stroke="#4DE9BF" stroke-width="1.5">
            <g id="Lock" transform="translate(429.000000, 1802.000000)">
                <path d="M20.3733723,9.90350365 L20.3733723,7.43824818 C20.3733723,3.34729927 17.026073,-5.68434189e-14 12.9351241,-5.68434189e-14 C8.84388321,-5.68434189e-14 5.49672993,3.34729927 5.49672993,7.43824818 L5.49672993,18.7229343" id="Stroke-4" stroke-linecap="round" stroke-linejoin="round"></path>
                <path d="M22.980146,39.9816204 L2.89007299,39.9816204 C1.30043796,39.9816204 1.46371804e-12,38.6810365 1.46371804e-12,37.0914015 L1.46371804e-12,21.6130073 C1.46371804e-12,20.0233723 1.30043796,18.7229343 2.89007299,18.7229343 L22.980146,18.7229343 C24.569635,18.7229343 25.870219,20.0233723 25.870219,21.6130073 L25.870219,37.0914015 C25.870219,38.6810365 24.569635,39.9816204 22.980146,39.9816204" id="Fill-6"></path>
                <path d="M12.7092701,23.3271679 C10.6745255,23.4410365 9.03481752,25.1429343 8.99175182,27.1811825 C8.96255474,28.5867299 9.67481752,29.8296496 10.7621168,30.5499416 C11.0358394,30.7316934 11.1986131,31.0410365 11.1986131,31.3695036 L11.1986131,32.645854 C11.1986131,33.5705255 11.8962774,34.3775328 12.8194891,34.4373869 C13.8310219,34.5032263 14.6716058,33.7024964 14.6716058,32.7049781 L14.6716058,31.3416204 C14.6716058,31.0302336 14.8234307,30.736073 15.0840146,30.566 C16.1625547,29.8617664 16.8791971,28.6473139 16.8791971,27.2652701 C16.8791971,25.0151971 14.9862044,23.1994307 12.7092701,23.3271679" id="Fill-8"></path>
                <path d="M32.0370949,17.6804964 L34.6785547,19.1790365" id="Stroke-14" stroke-linecap="round" stroke-linejoin="round"></path>
                <path d="M31.7800438,11.3134599 L34.7067591,10.5052847" id="Stroke-16" stroke-linecap="round" stroke-linejoin="round"></path>
                <path d="M27.0956788,6.99262774 L28.593635,4.35116788" id="Stroke-18" stroke-linecap="round" stroke-linejoin="round"></path>
            </g>
        </g>
    </g>
</svg>