<?xml version="1.0" encoding="UTF-8"?>
<svg width="82px" height="67px" viewBox="0 0 82 67" version="1.1" xmlns="http://www.w3.org/2000/svg" xmlns:xlink="http://www.w3.org/1999/xlink">
    <!-- Generator: Sketch 53.2 (72643) - https://sketchapp.com -->
    <title>message</title>
    <desc>Created with Sketch.</desc>
    <g id="Desktop-1440px" stroke="none" stroke-width="1" fill="none" fill-rule="evenodd" stroke-linecap="round" stroke-linejoin="round">
        <g id="Homepage" transform="translate(-1099.000000, -1525.000000)" stroke="#4DE9BF" stroke-width="1.5">
            <g id="message" transform="translate(1100.000000, 1526.000000)">
                <path d="M31.3296697,52.7689783 L74.2909176,52.7689783 C77.3968,52.7689783 79.9379765,50.2255 79.9379765,47.1168043 L79.9379765,6.35803623 C79.9379765,3.25028261 77.3968,0.705862319 74.2909176,0.705862319 L6.35303529,0.705862319 C3.24715294,0.705862319 0.705976471,3.25028261 0.705976471,6.35803623 L0.705976471,47.1168043 C0.705976471,50.2255 3.24715294,52.7689783 6.35303529,52.7689783 L12.2427499,52.7689783" id="Stroke-1"></path>
                <polyline id="Stroke-3" points="12.4238118 52.7689783 21.7894588 64.2947029 31.1551059 52.7689783"></polyline>
                <path d="M46.8482547,23.4157724 C46.7855768,23.2891366 46.6505485,23.2078665 46.5017208,23.2078665 L41.9703413,23.2078665 L46.442525,16.5666442 C46.5170678,16.4558985 46.5217107,16.3156773 46.45439,16.2009288 C46.3870693,16.0856951 46.2586183,16.0144928 46.1193341,16.0144928 L40.0008885,16.0144928 C39.8560587,16.0144928 39.7236097,16.0915174 39.6587394,16.2134225 L33.9226805,27.0034225 C33.8633558,27.1145321 33.8699331,27.2468689 33.9394462,27.3530052 C34.0094752,27.4590203 34.1322517,27.5237937 34.2649586,27.5237937 L38.197158,27.5237937 L33.9123632,37.0952275 C33.839239,37.2588594 33.9042383,37.4486918 34.0651889,37.5416065 C34.127222,37.577147 34.1959613,37.5944928 34.2644427,37.5944928 C34.3741935,37.5944928 34.4825257,37.5500974 34.5574554,37.4667653 L46.7943466,23.79944 C46.8902979,23.6923333 46.9109326,23.5426508 46.8482547,23.4157724" id="Fill-1"></path>
            </g>
        </g>
    </g>
</svg>