<?xml version="1.0" encoding="utf-8"?>
<!-- Svg Vector Icons : http://www.onlinewebfonts.com/icon -->
<!DOCTYPE svg PUBLIC "-//W3C//DTD SVG 1.1//EN" "http://www.w3.org/Graphics/SVG/1.1/DTD/svg11.dtd">
<svg version="1.1" xmlns="http://www.w3.org/2000/svg" xmlns:xlink="http://www.w3.org/1999/xlink" x="0px" y="0px" viewBox="0 0 1000 1000" enable-background="new 0 0 1000 1000" xml:space="preserve">
<metadata> Svg Vector Icons : http://www.onlinewebfonts.com/icon </metadata>
<g><g transform="translate(256.000000,440.000000) scale(0.0500000,-0.0500000)" fill="#FF6B6B"><path d="M1456.9,4992.1c-287.4-50.1-607.6-206.9-825.3-409.4c-243.9-226.5-400.7-490-490-821c-39.2-145.9-41.4-298.3-41.4-3636.7c0-3939.4-13.1-3641.1,174.2-4013.4c222.1-437.7,590.2-733.9,1064.9-853.7c167.7-43.6,248.3-43.6,3660.7-43.6s3493,0,3660.7,43.6c583.6,148.1,1017,572.7,1189,1169.4l50.1,169.9v3506c0,3963.4,15.3,3623.6-178.6,4017.8c-87.1,174.2-132.8,237.4-298.3,402.9c-213.4,213.4-400.7,328.8-699,429l-152.4,50.1l-3506,2.2C3138,5007.4,1513.5,5000.8,1456.9,4992.1z M2946.4,3790c45.7-13.1,113.2-58.8,148.1-98l65.3-74v-476.9V2662h474.7c448.6,0,479.1-2.2,570.6-47.9c209.1-106.7,235.2-370.2,54.4-540.1c-56.6-54.4-61-54.4-572.7-65.3l-516.1-10.9l-10.9-479.1c-8.7-411.6-17.4-490-50.1-540.1c-52.3-80.6-159-130.7-287.5-130.7c-128.5-2.2-217.8,37-280.9,121.9c-41.4,56.6-45.7,98-56.6,544.4l-10.9,483.4l-511.8,10.9c-555.3,10.9-581.4,17.4-653.3,137.2c-93.6,152.4-39.2,378.9,113.2,472.6c65.3,39.2,111,43.6,568.4,43.6h494.3v474.7c0,411.6,4.4,481.3,37,527C2615.4,3798.8,2767.8,3844.5,2946.4,3790z M8558.3,2622.8c95.8-47.9,154.6-159,154.6-294c0-119.8-39.2-209.1-121.9-274.4c-56.6-45.7-74.1-45.7-1226-45.7H6195.5l-56.6,61c-152.4,159-135,448.6,34.9,551c63.1,39.2,130.7,41.4,1189,41.4C8388.4,2662,8490.8,2657.7,8558.3,2622.8z M3824-959.4c84.9-41.4,163.3-132.9,187.3-217.8c41.4-152.4,2.2-211.2-374.6-592.3l-346.3-350.6l326.7-324.5c341.9-341.9,385.5-407.2,359.3-546.6c-17.4-98-128.5-224.3-246.1-274.4c-159-69.7-206.9-43.6-585.8,335.4l-333.2,331l-368-365.8l-370.2-365.8l-130.7,8.7c-108.9,8.7-143.7,19.6-200.3,74c-122,115.4-163.3,267.9-104.5,385.4c13.1,26.1,176.4,202.5,363.7,389.8l339.7,344.1l-341.9,344.1c-333.2,337.5-341.9,346.3-341.9,437.7c0,111.1,24,161.2,126.3,270c95.8,98,213.4,137.2,315.8,104.5c43.6-15.2,193.8-145.9,396.3-350.6l324.5-326.7l350.6,346.2C3575.8-902.8,3641.1-868,3824-959.4z M8445-1205.5c139.4-102.3,178.6-346.2,78.4-483.4c-98-137.2-87.1-135-1232.6-135c-953.8,0-1047.5,2.2-1108.4,39.2c-139.4,80.6-187.3,300.5-104.5,474.7c80.6,165.5,45.7,161.2,1245.6,154.6C8355.7-1159.8,8384.1-1162,8445-1205.5z M8427.6-2573.1c196-102.4,204.7-466,15.2-581.4c-63.1-39.2-128.5-41.4-1147.6-41.4c-1075.8,0-1080.1,0-1141.1,47.9c-74,58.8-119.8,163.3-119.8,278.7c0,115.4,45.7,219.9,119.8,278.7c61,47.9,65.3,47.9,1136.7,47.9C8188.1-2542.6,8377.5-2547,8427.6-2573.1z"/></g></g>
</svg>