<?xml version="1.0" encoding="utf-8"?>
<!-- Generator: Adobe Illustrator 22.0.0, SVG Export Plug-In . SVG Version: 6.00 Build 0)  -->
<svg version="1.1" id="Ebene_1" xmlns="http://www.w3.org/2000/svg" xmlns:xlink="http://www.w3.org/1999/xlink" x="0px" y="0px"
	 viewBox="0 0 150 100" style="enable-background:new 0 0 150 100;" xml:space="preserve">
<style type="text/css">
	.st0{enable-background:new    ;}
	.st1{fill:#FF6B6B;}
</style>
<title>video</title>
<desc>Created with Sketch.</desc>
<g>
	<g class="st0">
		<path class="st1" d="M34,51.5v-3c-1.7,0-3.5-0.6-4.5-1.3l0.7-2c1,0.7,2.6,1.3,4.2,1.3c2.2,0,3.6-1.2,3.6-2.9
			c0-1.6-1.2-2.7-3.4-3.6c-3-1.2-4.9-2.6-4.9-5.2c0-2.5,1.8-4.4,4.5-4.8v-3h1.9v2.9c1.8,0.1,3,0.5,3.9,1l-0.7,2
			c-0.6-0.4-1.9-1-3.8-1c-2.3,0-3.2,1.4-3.2,2.6c0,1.5,1.1,2.3,3.7,3.4c3.1,1.3,4.6,2.8,4.6,5.4c0,2.4-1.6,4.6-4.7,5.1v3.1H34z"/>
	</g>
	<g class="st0">
		<path class="st1" d="M44.9,64.7v-2.5l3.1-3c7.6-7.2,11-11,11-15.5c0-3-1.4-5.8-5.8-5.8c-2.7,0-4.9,1.4-6.3,2.5l-1.3-2.8
			c2-1.7,5-3,8.4-3c6.3,0,9,4.4,9,8.6c0,5.5-4,9.9-10.2,15.9l-2.3,2.2v0.1h13.2v3.3H44.9z"/>
		<path class="st1" d="M77.7,65.2c-5.8,0-9.7-5.4-9.8-15.2c0-10,4.3-15.4,10.3-15.4c6.2,0,9.8,5.5,9.8,15
			C88,59.6,84.2,65.2,77.7,65.2L77.7,65.2z M77.9,62.1c4,0,6-4.8,6-12.3c0-7.3-1.8-12.1-6-12.1c-3.6,0-6,4.6-6,12.1
			C71.8,57.5,74.2,62.1,77.9,62.1L77.9,62.1z"/>
	</g>
	<g class="st0">
		<path class="st1" d="M93.5,62.7l4.7-12.2h1.2l-4.7,12.2H93.5z"/>
		<path class="st1" d="M100.7,56.1c0-0.9-0.1-1.5-0.2-2.2h1.2l0.1,1.3h0.1c0.5-0.8,1.2-1.5,2.6-1.5c1.1,0,1.9,0.7,2.3,1.6l0,0
			c0.3-0.5,0.6-0.8,0.9-1.1c0.5-0.4,1-0.6,1.8-0.6c1.1,0,2.7,0.7,2.7,3.5V62h-1.4v-4.6c0-1.6-0.6-2.5-1.8-2.5
			c-0.9,0-1.5,0.6-1.8,1.3c-0.1,0.2-0.1,0.5-0.1,0.7v5h-1.4V57c0-1.3-0.6-2.2-1.7-2.2c-0.9,0-1.6,0.7-1.8,1.5
			c-0.1,0.2-0.1,0.5-0.1,0.7v5h-1.4V56.1L100.7,56.1z"/>
		<path class="st1" d="M117.8,62.2c-2.2,0-3.9-1.6-3.9-4.2c0-2.7,1.8-4.3,4-4.3c2.3,0,3.9,1.7,3.9,4.2
			C121.9,60.9,119.8,62.2,117.8,62.2L117.8,62.2z M117.9,61.1c1.4,0,2.5-1.3,2.5-3.2c0-1.4-0.7-3.1-2.4-3.1c-1.7,0-2.5,1.6-2.5,3.2
			C115.4,59.8,116.4,61.1,117.9,61.1L117.9,61.1z"/>
	</g>
</g>
</svg>
