<?xml version="1.0" encoding="utf-8"?>
<!-- Generator: Adobe Illustrator 24.2.1, SVG Export Plug-In . SVG Version: 6.00 Build 0)  -->
<svg version="1.1" id="Ebene_1" xmlns="http://www.w3.org/2000/svg" xmlns:xlink="http://www.w3.org/1999/xlink" x="0px" y="0px"
	 viewBox="0 0 150 100" style="enable-background:new 0 0 150 100;" xml:space="preserve">
<style type="text/css">
	.st0{fill:none;stroke:#CCCCCC;stroke-width:0.75;}
	.st1{fill:#CCCCCC;stroke:#CCCCCC;stroke-width:0.75;stroke-linecap:square;}
	.st2{fill-rule:evenodd;clip-rule:evenodd;fill:#CCCCCC;}
	.st3{fill:none;stroke:#CCCCCC;stroke-width:1.6;}
	.st4{fill:none;stroke:#CCCCCC;stroke-linecap:square;}
	.st5{fill:none;stroke:#CCCCCC;stroke-width:4;stroke-linecap:square;}
	.st6{fill:none;stroke:#AAAAAA;stroke-width:4;stroke-linecap:square;}
</style>
<desc>Created with Sketch.</desc>
<g id="Group" transform="translate(0.000000, 4.000000)">
	<rect id="Rectangle" x="27.8" y="17.8" class="st0" width="26.4" height="56.4"/>
	<path id="Line" class="st1" d="M32.3,32h17.3"/>
	<path id="Line_1_" class="st1" d="M34.3,25h13.3"/>
	<path id="Line_2_" class="st1" d="M34.3,37h13"/>
	<path id="Line_3_" class="st1" d="M33.3,42H48"/>
	<path id="Line_4_" class="st1" d="M35.3,46H48"/>
	<path id="Line_5_" class="st1" d="M32.3,51H50"/>
	<path id="_x32_0" class="st2" d="M34.1,62.3h2.4v-0.4c0-0.3,0-0.5,0.1-0.7s0.1-0.3,0.2-0.4c0.1-0.1,0.1-0.2,0.2-0.2
		c0.1,0,0.2,0,0.3,0c0.2,0,0.4,0.1,0.5,0.2c0.1,0.2,0.2,0.4,0.2,0.9c0,0.4-0.1,0.7-0.2,0.9c-0.1,0.2-0.3,0.5-0.5,0.7l-1.7,1.8
		c-0.6,0.6-1,1.2-1.2,1.8c-0.2,0.6-0.3,1.3-0.3,2h6.5v-1.9h-3.4c0-0.1,0.1-0.3,0.3-0.4c0.1-0.1,0.3-0.3,0.4-0.4l1.5-1.5
		c0.4-0.4,0.7-0.8,0.9-1.2s0.3-1,0.3-1.7c0-0.4,0-0.7-0.1-1c-0.1-0.3-0.3-0.6-0.5-0.9s-0.6-0.4-1-0.6C38.5,59.1,38,59,37.3,59
		c-0.7,0-1.2,0.1-1.6,0.2s-0.7,0.4-1,0.7c-0.2,0.3-0.4,0.6-0.5,1.1C34.1,61.4,34.1,61.8,34.1,62.3z M43.9,65.6
		c0,0.7,0.1,1.2,0.2,1.4c0.1,0.2,0.3,0.4,0.6,0.4c0.3,0,0.5-0.1,0.6-0.4c0.1-0.2,0.2-0.7,0.2-1.4v-3.3c0-0.7-0.1-1.2-0.2-1.4
		c-0.1-0.2-0.3-0.4-0.6-0.4c-0.3,0-0.5,0.1-0.6,0.4c-0.1,0.2-0.2,0.7-0.2,1.4V65.6z M41.3,64c0-1,0.1-1.8,0.2-2.5
		c0.1-0.6,0.3-1.2,0.6-1.5c0.3-0.4,0.6-0.6,1-0.8c0.4-0.1,0.9-0.2,1.5-0.2s1.1,0.1,1.5,0.2c0.4,0.1,0.8,0.4,1,0.8
		c0.3,0.4,0.5,0.9,0.6,1.5C47.9,62.2,48,63,48,64c0,1-0.1,1.8-0.2,2.5s-0.3,1.2-0.6,1.5c-0.3,0.4-0.6,0.6-1,0.8
		c-0.4,0.1-0.9,0.2-1.5,0.2s-1.1-0.1-1.5-0.2c-0.4-0.1-0.8-0.4-1-0.8c-0.3-0.4-0.5-0.9-0.6-1.5S41.3,65,41.3,64z"/>
</g>
<rect id="Rectangle_1_" x="56.8" y="11.4" class="st3" width="36.4" height="76.8"/>
<path id="Line_6_" class="st4" d="M60.1,29h29.6"/>
<path id="Line_7_" class="st5" d="M63.6,20.6h22.5"/>
<path id="Line_9_" class="st6" d="M61.9,42.8h27"/>
<path id="Line_8_" class="st4" d="M63.6,35.6h21.9"/>
<path id="Line_10_" class="st4" d="M64.8,48.9h21.9"/>
<path id="Line_11_" class="st4" d="M60.1,55.5h30.2"/>
<path id="_x33_0" class="st2" d="M63.8,70.7h4c0-0.9,0.1-1.5,0.3-1.8s0.5-0.5,0.9-0.5c0.4,0,0.7,0.1,0.8,0.4s0.3,0.7,0.3,1.4
	c0,0.5,0,0.9-0.1,1.2c-0.1,0.3-0.2,0.5-0.4,0.7c-0.2,0.2-0.4,0.3-0.6,0.4c-0.2,0.1-0.5,0.1-0.9,0.1h-0.6v2.7h1.1
	c0.6,0,1,0.1,1.2,0.4s0.4,0.8,0.4,1.7c0,0.5,0,1,0,1.3c0,0.3-0.1,0.6-0.2,0.8c-0.1,0.2-0.2,0.3-0.4,0.4c-0.2,0.1-0.4,0.1-0.6,0.1
	c-0.5,0-0.8-0.2-1-0.6c-0.1-0.2-0.2-0.5-0.2-0.8c-0.1-0.3-0.1-0.7-0.1-1.2h-4.1c0,1,0.1,1.9,0.3,2.5c0.2,0.7,0.6,1.2,1,1.6
	c0.5,0.4,1,0.7,1.7,0.9c0.7,0.2,1.5,0.2,2.5,0.2c1.8,0,3.2-0.4,4.1-1.2s1.4-2.2,1.4-4.1c0-0.9-0.2-1.7-0.6-2.4
	c-0.4-0.7-1.1-1.1-2.1-1.3v0c0.4-0.1,0.8-0.3,1.1-0.5c0.3-0.2,0.5-0.5,0.7-0.8c0.2-0.3,0.3-0.6,0.4-1c0.1-0.4,0.1-0.7,0.1-1
	c0-0.7-0.1-1.4-0.2-2c-0.2-0.6-0.5-1.1-0.9-1.5c-0.4-0.4-0.9-0.7-1.6-0.9c-0.7-0.2-1.5-0.3-2.6-0.3c-1.7,0-3,0.4-3.9,1.2
	C64.3,67.7,63.9,68.9,63.8,70.7z M80.4,76.9c0,1.2,0.1,2,0.3,2.4s0.5,0.6,1,0.6c0.5,0,0.8-0.2,1-0.6c0.2-0.4,0.3-1.2,0.3-2.4v-5.5
	c0-1.2-0.1-2-0.3-2.4c-0.2-0.4-0.5-0.6-1-0.6c-0.5,0-0.8,0.2-1,0.6c-0.2,0.4-0.3,1.2-0.3,2.4V76.9z M75.9,74.2
	c0-1.7,0.1-3.1,0.3-4.2c0.2-1.1,0.6-2,1-2.6c0.5-0.6,1.1-1.1,1.8-1.4c0.7-0.3,1.6-0.4,2.5-0.4c1,0,1.8,0.1,2.5,0.4s1.3,0.7,1.8,1.4
	c0.5,0.6,0.8,1.5,1,2.6c0.2,1.1,0.3,2.5,0.3,4.2c0,1.7-0.1,3.1-0.3,4.2c-0.2,1.1-0.6,2-1,2.6c-0.5,0.6-1.1,1.1-1.8,1.3
	c-0.7,0.2-1.6,0.4-2.5,0.4c-1,0-1.8-0.1-2.5-0.4c-0.7-0.2-1.3-0.7-1.8-1.3c-0.5-0.6-0.8-1.5-1-2.6C76.1,77.3,75.9,75.9,75.9,74.2z"
	/>
<g id="Group_2_" transform="translate(68.000000, 4.000000)">
	<rect id="Rectangle_2_" x="27.8" y="17.8" class="st0" width="26.4" height="56.4"/>
	<path id="Line_12_" class="st1" d="M32.3,32h17.3"/>
	<path id="Line_13_" class="st1" d="M34.3,25h13.3"/>
	<path id="Line_14_" class="st1" d="M34.3,37h13"/>
	<path id="Line_15_" class="st1" d="M33.3,42H48"/>
	<path id="Line_16_" class="st1" d="M35.3,46H48"/>
	<path id="Line_17_" class="st1" d="M32.3,51H50"/>
	<path id="_x34_0" class="st2" d="M34,65.1l3.1-5.9h2.8v6h0.9V67h-0.9v1.8h-2.4V67H34V65.1z M37.6,65.1v-3.3h0L36,65.1H37.6z
		 M43.9,65.6c0,0.7,0.1,1.2,0.2,1.4c0.1,0.2,0.3,0.4,0.6,0.4c0.3,0,0.5-0.1,0.6-0.4c0.1-0.2,0.2-0.7,0.2-1.4v-3.3
		c0-0.7-0.1-1.2-0.2-1.4c-0.1-0.2-0.3-0.4-0.6-0.4c-0.3,0-0.5,0.1-0.6,0.4c-0.1,0.2-0.2,0.7-0.2,1.4V65.6z M41.3,64
		c0-1,0.1-1.8,0.2-2.5c0.1-0.6,0.3-1.2,0.6-1.5c0.3-0.4,0.6-0.6,1-0.8c0.4-0.1,0.9-0.2,1.5-0.2s1.1,0.1,1.5,0.2
		c0.4,0.1,0.8,0.4,1,0.8c0.3,0.4,0.5,0.9,0.6,1.5C47.9,62.2,48,63,48,64c0,1-0.1,1.8-0.2,2.5c-0.1,0.6-0.3,1.2-0.6,1.5
		c-0.3,0.4-0.6,0.6-1,0.8c-0.4,0.1-0.9,0.2-1.5,0.2s-1.1-0.1-1.5-0.2c-0.4-0.1-0.8-0.4-1-0.8c-0.3-0.4-0.5-0.9-0.6-1.5
		C41.4,65.8,41.3,65,41.3,64z"/>
</g>
</svg>
