<?xml version="1.0" encoding="utf-8"?>
<!-- Generator: Adobe Illustrator 22.0.0, SVG Export Plug-In . SVG Version: 6.00 Build 0)  -->
<svg width="150px" height="100px" viewBox="0 0 150 100" version="1.1" xmlns="http://www.w3.org/2000/svg" xmlns:xlink="http://www.w3.org/1999/xlink">
<style type="text/css">
	.st0{fill:#FE6F6F;}
</style>
<title>divider</title>
<desc>Created with Sketch.</desc>
<path class="st0" d="M31.4,50.4c0-4,1.8-6.8,5.1-8.2c3.7-1.6,7.5-0.3,9.4,1.9c0.5,0.6,1.3,1.1,1.6,1.9c0.4,1.2,1.2,1.5,2.4,1.5
	c19.2,0,38.4,0,57.6,0c0.3,0,0.7,0,1,0c0.8,0,1-0.3,1-1.1c0-1.8,0-3.7,0-5.5c0-0.3-0.1-0.7,0.3-0.9c0.4-0.2,0.6,0.1,0.8,0.4
	c1.9,2.2,4,4.3,5.8,6.6c0.8,1,2.5,1.8,2.3,3.1c-0.1,1-1.5,1.9-2.3,2.9c-1.9,2.1-3.7,4.3-5.6,6.4c-0.3,0.3-0.5,0.8-1,0.6
	c-0.5-0.2-0.3-0.7-0.4-1.1c0-1.6,0-3.2,0-4.8c0-1.8-0.2-1.6-1.7-1.6c-0.3,0-0.7,0-1,0c-18.8,0-37.5,0-56.3,0c-1.7,0-2.6,0.3-3.5,2
	c-1.5,2.8-4.2,4.3-7.5,4.1c-3.1-0.2-5.6-1.5-7-4.4C31.8,52.8,31.1,51.6,31.4,50.4z"/>
</svg>
