<?xml version="1.0" encoding="UTF-8"?>
<svg width="150px" height="100px" viewBox="0 0 150 100" version="1.1" xmlns="http://www.w3.org/2000/svg" xmlns:xlink="http://www.w3.org/1999/xlink">
    <!-- Generator: Sketch 47.1 (45422) - http://www.bohemiancoding.com/sketch -->
    <title>table</title>
    <desc>Created with Sketch.</desc>
    <defs>
        <rect id="path-1" x="0" y="0" width="16" height="10"></rect>
        <rect id="path-2" x="17" y="0" width="15" height="10"></rect>
        <rect id="path-3" x="33" y="0" width="15" height="10"></rect>
        <rect id="path-4" x="49" y="0" width="15" height="10"></rect>
        <rect id="path-5" x="65" y="0" width="16" height="10"></rect>
    </defs>
    <g id="Page-1" stroke="none" stroke-width="1" fill="none" fill-rule="evenodd">
        <g id="table">
            <g id="Group" transform="translate(35.000000, 25.000000)">
                <rect id="Rectangle-3" stroke="#aaaaaa" stroke-linecap="square" x="0.5" y="11.5" width="16" height="8"></rect>
                <rect id="Rectangle-3" stroke="#aaaaaa" stroke-linecap="square" x="0.5" y="19.5" width="16" height="8"></rect>
                <g id="Rectangle-3">
                    <use fill="#aaaaaa" fill-rule="evenodd" xlink:href="#path-1"></use>
                    <rect stroke="#aaaaaa" stroke-width="1" x="-0.5" y="-0.5" width="17" height="11"></rect>
                    <rect stroke="#FFFFFF" stroke-width="1" x="-0.5" y="-0.5" width="17" height="11"></rect>
                </g>
                <rect id="Rectangle-3" stroke="#aaaaaa" stroke-linecap="square" x="16.5" y="11.5" width="16" height="8"></rect>
                <rect id="Rectangle-3" stroke="#aaaaaa" stroke-linecap="square" x="16.5" y="19.5" width="16" height="8"></rect>
                <g id="Rectangle-3">
                    <use fill="#aaaaaa" fill-rule="evenodd" xlink:href="#path-2"></use>
                    <rect stroke="#aaaaaa" stroke-width="1" x="16.5" y="-0.5" width="16" height="11"></rect>
                    <rect stroke="#FFFFFF" stroke-width="1" x="16.5" y="-0.5" width="16" height="11"></rect>
                </g>
                <rect id="Rectangle-3" stroke="#aaaaaa" stroke-linecap="square" x="32.5" y="11.5" width="16" height="8"></rect>
                <rect id="Rectangle-3" stroke="#aaaaaa" stroke-linecap="square" x="32.5" y="19.5" width="16" height="8"></rect>
                <g id="Rectangle-3">
                    <use fill="#aaaaaa" fill-rule="evenodd" xlink:href="#path-3"></use>
                    <rect stroke="#aaaaaa" stroke-width="1" x="32.5" y="-0.5" width="16" height="11"></rect>
                    <rect stroke="#FFFFFF" stroke-width="1" x="32.5" y="-0.5" width="16" height="11"></rect>
                </g>
                <rect id="Rectangle-3" stroke="#aaaaaa" stroke-linecap="square" x="48.5" y="11.5" width="16" height="8"></rect>
                <rect id="Rectangle-3" stroke="#aaaaaa" stroke-linecap="square" x="48.5" y="19.5" width="16" height="8"></rect>
                <g id="Rectangle-3">
                    <use fill="#aaaaaa" fill-rule="evenodd" xlink:href="#path-4"></use>
                    <rect stroke="#aaaaaa" stroke-width="1" x="48.5" y="-0.5" width="16" height="11"></rect>
                    <rect stroke="#FFFFFF" stroke-width="1" x="48.5" y="-0.5" width="16" height="11"></rect>
                </g>
                <rect id="Rectangle-3" stroke="#aaaaaa" stroke-linecap="square" x="64.5" y="11.5" width="16" height="8"></rect>
                <rect id="Rectangle-3" stroke="#aaaaaa" stroke-linecap="square" x="64.5" y="19.5" width="16" height="8"></rect>
                <rect id="Rectangle-3" stroke="#aaaaaa" stroke-linecap="square" x="0.5" y="27.5" width="16" height="8"></rect>
                <rect id="Rectangle-3" stroke="#aaaaaa" stroke-linecap="square" x="16.5" y="27.5" width="16" height="8"></rect>
                <rect id="Rectangle-3" stroke="#aaaaaa" stroke-linecap="square" x="32.5" y="27.5" width="16" height="8"></rect>
                <rect id="Rectangle-3" stroke="#aaaaaa" stroke-linecap="square" x="48.5" y="27.5" width="16" height="8"></rect>
                <rect id="Rectangle-3" stroke="#aaaaaa" stroke-linecap="square" x="64.5" y="27.5" width="16" height="8"></rect>
                <rect id="Rectangle-3" stroke="#aaaaaa" stroke-linecap="square" x="0.5" y="43.5" width="16" height="8"></rect>
                <rect id="Rectangle-3" stroke="#aaaaaa" stroke-linecap="square" x="16.5" y="43.5" width="16" height="8"></rect>
                <rect id="Rectangle-3" stroke="#aaaaaa" stroke-linecap="square" x="32.5" y="43.5" width="16" height="8"></rect>
                <rect id="Rectangle-3" stroke="#aaaaaa" stroke-linecap="square" x="48.5" y="43.5" width="16" height="8"></rect>
                <rect id="Rectangle-3" stroke="#aaaaaa" stroke-linecap="square" x="64.5" y="43.5" width="16" height="8"></rect>
                <rect id="Rectangle-3" stroke="#aaaaaa" stroke-linecap="square" x="0.5" y="35.5" width="16" height="8"></rect>
                <rect id="Rectangle-3" stroke="#aaaaaa" stroke-linecap="square" x="16.5" y="35.5" width="16" height="8"></rect>
                <rect id="Rectangle-3" stroke="#aaaaaa" stroke-linecap="square" x="32.5" y="35.5" width="16" height="8"></rect>
                <rect id="Rectangle-3" stroke="#aaaaaa" stroke-linecap="square" x="48.5" y="35.5" width="16" height="8"></rect>
                <rect id="Rectangle-3" stroke="#aaaaaa" stroke-linecap="square" x="64.5" y="35.5" width="16" height="8"></rect>
                <g id="Rectangle-3">
                    <use fill="#aaaaaa" fill-rule="evenodd" xlink:href="#path-5"></use>
                    <rect stroke="#aaaaaa" stroke-width="1" x="64.5" y="-0.5" width="17" height="11"></rect>
                    <rect stroke="#FFFFFF" stroke-width="1" x="64.5" y="-0.5" width="17" height="11"></rect>
                </g>
            </g>
        </g>
    </g>
</svg>