<?xml version="1.0" encoding="utf-8"?>
<!-- Generator: Adobe Illustrator 24.2.1, SVG Export Plug-In . SVG Version: 6.00 Build 0)  -->
<svg version="1.1" id="Ebene_1" xmlns="http://www.w3.org/2000/svg" xmlns:xlink="http://www.w3.org/1999/xlink" x="0px" y="0px"
	 viewBox="0 0 150 100" style="enable-background:new 0 0 150 100;" xml:space="preserve">
<style type="text/css">
	.st0{fill:none;stroke:#CCCCCC;stroke-linecap:square;}
	.st1{fill-rule:evenodd;clip-rule:evenodd;fill:#AAAAAA;}
</style>
<desc>Created with Sketch.</desc>
<g id="table">
	<g id="Group" transform="translate(35.000000, 25.000000)">
		<rect id="Rectangle-3" y="5" class="st0" width="16" height="8"/>
		<rect id="Rectangle-3_1_" y="13" class="st0" width="16" height="8"/>
		<rect id="Rectangle-3_3_" x="16" y="5" class="st0" width="16" height="8"/>
		<rect id="Rectangle-3_4_" x="16" y="13" class="st0" width="16" height="8"/>
		<rect id="Rectangle-3_6_" x="32" y="5" class="st0" width="16" height="8"/>
		<rect id="Rectangle-3_7_" x="32" y="13" class="st0" width="16" height="8"/>
		<rect id="Rectangle-3_9_" x="48" y="5" class="st0" width="16" height="8"/>
		<rect id="Rectangle-3_10_" x="48" y="13" class="st0" width="16" height="8"/>
		<rect id="Rectangle-3_12_" x="64" y="5" class="st0" width="16" height="8"/>
		<rect id="Rectangle-3_13_" x="64" y="13" class="st0" width="16" height="8"/>
		<rect id="Rectangle-3_14_" y="21" class="st0" width="16" height="8"/>
		<rect id="Rectangle-3_15_" x="16" y="21" class="st0" width="16" height="8"/>
		<rect id="Rectangle-3_16_" x="32" y="21" class="st0" width="16" height="8"/>
		<rect id="Rectangle-3_17_" x="48" y="21" class="st0" width="16" height="8"/>
		<rect id="Rectangle-3_18_" x="64" y="21" class="st0" width="16" height="8"/>
		<rect id="Rectangle-3_19_" y="37" class="st0" width="16" height="8"/>
		<rect id="Rectangle-3_20_" x="16" y="37" class="st0" width="16" height="8"/>
		<rect id="Rectangle-3_21_" x="32" y="37" class="st0" width="16" height="8"/>
		<rect id="Rectangle-3_22_" x="48" y="37" class="st0" width="16" height="8"/>
		<rect id="Rectangle-3_23_" x="64" y="37" class="st0" width="16" height="8"/>
		<rect id="Rectangle-3_24_" y="29" class="st0" width="16" height="8"/>
		<rect id="Rectangle-3_25_" x="16" y="29" class="st0" width="16" height="8"/>
		<rect id="Rectangle-3_26_" x="32" y="29" class="st0" width="16" height="8"/>
		<rect id="Rectangle-3_27_" x="48" y="29" class="st0" width="16" height="8"/>
		<rect id="Rectangle-3_28_" x="64" y="29" class="st0" width="16" height="8"/>
	</g>
</g>
<g>
	<g>
		<rect id="path-1_1_" x="19.7" y="43.2" class="st1" width="21.8" height="13.7"/>
	</g>
	<g>
		<rect id="path-2_1_" x="42.9" y="43.2" class="st1" width="20.5" height="13.7"/>
	</g>
	<g>
		<rect id="path-3_1_" x="64.8" y="43.2" class="st1" width="20.5" height="13.7"/>
	</g>
	<g>
		<rect id="path-4_1_" x="86.6" y="43.2" class="st1" width="20.5" height="13.7"/>
	</g>
	<g>
		<rect id="path-5_1_" x="108.4" y="43.2" class="st1" width="21.8" height="13.7"/>
	</g>
</g>
</svg>
