<?xml version="1.0" encoding="UTF-8"?>
<svg width="150px" height="100px" viewBox="0 0 150 100" version="1.1" xmlns="http://www.w3.org/2000/svg" xmlns:xlink="http://www.w3.org/1999/xlink">
    <!-- Generator: Sketch 47.1 (45422) - http://www.bohemiancoding.com/sketch -->
    <title>thumbnail_gallery</title>
    <desc>Created with Sketch.</desc>
    <defs>
        <rect id="path-1" x="0" y="0" width="37" height="27"></rect>
        <rect id="path-2" x="0" y="0" width="37" height="27"></rect>
        <rect id="path-3" x="0" y="0" width="37" height="27"></rect>
        <rect id="path-4" x="0" y="0" width="37" height="27"></rect>
    </defs>
    <g id="Page-1" stroke="none" stroke-width="1" fill="none" fill-rule="evenodd">
        <g id="thumbnail_gallery">
            <g id="Group-2" transform="translate(33.000000, 19.000000)">
                <g id="Rectangle-4">
                    <use fill="#FFFFFF" fill-rule="evenodd" xlink:href="#path-1"></use>
                    <rect stroke="#FF6B6B" stroke-width="2" x="-1" y="-1" width="39" height="29"></rect>
                </g>
                <g id="Group" transform="translate(3.700000, 3.600000)">
                    <path d="M0.189019776,0 C0.0846270361,0 0,0.0738680302 0,0.16420864 L0,20.2357913 C0,20.3264813 0.084912109,20.4 0.189019776,20.4 L29.4109803,20.4 C29.5153729,20.4 29.6,20.326132 29.6,20.2357913 L29.6,0.16420864 C29.6,0.0735187185 29.5150878,0 29.4109803,0 L0.189019776,0 Z" id="path-1-path" fill="#FFFFFF"></path>
                    <path d="M10.9852306,4.87437139 L15.3586637,12.0783621 C15.4124802,12.1670097 15.5287153,12.190167 15.6149873,12.1322955 L19.3249317,9.64365315 C19.4985829,9.52716727 19.7298255,9.56780466 19.8457847,9.74092596 L26.5882947,17.2452992 C26.7023026,17.4155073 26.6198714,17.5534884 26.4185699,17.5534884 L2.70688365,17.5534884 C2.49858483,17.5534884 2.40808289,17.4093732 2.50644484,17.2284663 L10.6139842,4.87896563 C10.7115837,4.6994609 10.8797354,4.70059801 10.9852306,4.87437139 Z" id="path-1-path" fill="#FF6B6B"></path>
                    <path d="M24.1733333,6.16744186 C25.2631752,6.16744186 26.1466667,5.31782412 26.1466667,4.26976744 C26.1466667,3.22171076 25.2631752,2.37209302 24.1733333,2.37209302 C23.0834915,2.37209302 22.2,3.22171076 22.2,4.26976744 C22.2,5.31782412 23.0834915,6.16744186 24.1733333,6.16744186 Z" id="path-1-path" fill="#FF6B6B"></path>
                </g>
            </g>
            <g id="Group-2" transform="translate(33.000000, 55.000000)">
                <g id="Rectangle-4">
                    <use fill="#FFFFFF" fill-rule="evenodd" xlink:href="#path-2"></use>
                    <rect stroke="#FF6B6B" stroke-width="2" x="-1" y="-1" width="39" height="29"></rect>
                </g>
                <g id="Group" transform="translate(3.700000, 3.600000)">
                    <path d="M0.189019776,0 C0.0846270361,0 0,0.0738680302 0,0.16420864 L0,20.2357913 C0,20.3264813 0.084912109,20.4 0.189019776,20.4 L29.4109803,20.4 C29.5153729,20.4 29.6,20.326132 29.6,20.2357913 L29.6,0.16420864 C29.6,0.0735187185 29.5150878,0 29.4109803,0 L0.189019776,0 Z" id="path-1-path" fill="#FFFFFF"></path>
                    <path d="M10.9852306,4.87437139 L15.3586637,12.0783621 C15.4124802,12.1670097 15.5287153,12.190167 15.6149873,12.1322955 L19.3249317,9.64365315 C19.4985829,9.52716727 19.7298255,9.56780466 19.8457847,9.74092596 L26.5882947,17.2452992 C26.7023026,17.4155073 26.6198714,17.5534884 26.4185699,17.5534884 L2.70688365,17.5534884 C2.49858483,17.5534884 2.40808289,17.4093732 2.50644484,17.2284663 L10.6139842,4.87896563 C10.7115837,4.6994609 10.8797354,4.70059801 10.9852306,4.87437139 Z" id="path-1-path" fill="#FF6B6B"></path>
                    <path d="M24.1733333,6.16744186 C25.2631752,6.16744186 26.1466667,5.31782412 26.1466667,4.26976744 C26.1466667,3.22171076 25.2631752,2.37209302 24.1733333,2.37209302 C23.0834915,2.37209302 22.2,3.22171076 22.2,4.26976744 C22.2,5.31782412 23.0834915,6.16744186 24.1733333,6.16744186 Z" id="path-1-path" fill="#FF6B6B"></path>
                </g>
            </g>
            <g id="Group-2" transform="translate(80.000000, 19.000000)">
                <g id="Rectangle-4">
                    <use fill="#FFFFFF" fill-rule="evenodd" xlink:href="#path-3"></use>
                    <rect stroke="#FF6B6B" stroke-width="2" x="-1" y="-1" width="39" height="29"></rect>
                </g>
                <g id="Group" transform="translate(3.700000, 3.600000)">
                    <path d="M0.189019776,0 C0.0846270361,0 0,0.0738680302 0,0.16420864 L0,20.2357913 C0,20.3264813 0.084912109,20.4 0.189019776,20.4 L29.4109803,20.4 C29.5153729,20.4 29.6,20.326132 29.6,20.2357913 L29.6,0.16420864 C29.6,0.0735187185 29.5150878,0 29.4109803,0 L0.189019776,0 Z" id="path-1-path" fill="#FFFFFF"></path>
                    <path d="M10.9852306,4.87437139 L15.3586637,12.0783621 C15.4124802,12.1670097 15.5287153,12.190167 15.6149873,12.1322955 L19.3249317,9.64365315 C19.4985829,9.52716727 19.7298255,9.56780466 19.8457847,9.74092596 L26.5882947,17.2452992 C26.7023026,17.4155073 26.6198714,17.5534884 26.4185699,17.5534884 L2.70688365,17.5534884 C2.49858483,17.5534884 2.40808289,17.4093732 2.50644484,17.2284663 L10.6139842,4.87896563 C10.7115837,4.6994609 10.8797354,4.70059801 10.9852306,4.87437139 Z" id="path-1-path" fill="#FF6B6B"></path>
                    <path d="M24.1733333,6.16744186 C25.2631752,6.16744186 26.1466667,5.31782412 26.1466667,4.26976744 C26.1466667,3.22171076 25.2631752,2.37209302 24.1733333,2.37209302 C23.0834915,2.37209302 22.2,3.22171076 22.2,4.26976744 C22.2,5.31782412 23.0834915,6.16744186 24.1733333,6.16744186 Z" id="path-1-path" fill="#FF6B6B"></path>
                </g>
            </g>
            <g id="Group-2" transform="translate(80.000000, 55.000000)">
                <g id="Rectangle-4">
                    <use fill="#FFFFFF" fill-rule="evenodd" xlink:href="#path-4"></use>
                    <rect stroke="#FF6B6B" stroke-width="2" x="-1" y="-1" width="39" height="29"></rect>
                </g>
                <g id="Group" transform="translate(3.700000, 3.600000)">
                    <path d="M0.189019776,0 C0.0846270361,0 0,0.0738680302 0,0.16420864 L0,20.2357913 C0,20.3264813 0.084912109,20.4 0.189019776,20.4 L29.4109803,20.4 C29.5153729,20.4 29.6,20.326132 29.6,20.2357913 L29.6,0.16420864 C29.6,0.0735187185 29.5150878,0 29.4109803,0 L0.189019776,0 Z" id="path-1-path" fill="#FFFFFF"></path>
                    <path d="M10.9852306,4.87437139 L15.3586637,12.0783621 C15.4124802,12.1670097 15.5287153,12.190167 15.6149873,12.1322955 L19.3249317,9.64365315 C19.4985829,9.52716727 19.7298255,9.56780466 19.8457847,9.74092596 L26.5882947,17.2452992 C26.7023026,17.4155073 26.6198714,17.5534884 26.4185699,17.5534884 L2.70688365,17.5534884 C2.49858483,17.5534884 2.40808289,17.4093732 2.50644484,17.2284663 L10.6139842,4.87896563 C10.7115837,4.6994609 10.8797354,4.70059801 10.9852306,4.87437139 Z" id="path-1-path" fill="#FF6B6B"></path>
                    <path d="M24.1733333,6.16744186 C25.2631752,6.16744186 26.1466667,5.31782412 26.1466667,4.26976744 C26.1466667,3.22171076 25.2631752,2.37209302 24.1733333,2.37209302 C23.0834915,2.37209302 22.2,3.22171076 22.2,4.26976744 C22.2,5.31782412 23.0834915,6.16744186 24.1733333,6.16744186 Z" id="path-1-path" fill="#FF6B6B"></path>
                </g>
            </g>
        </g>
    </g>
</svg>