<?xml version="1.0" encoding="utf-8"?>
<!-- Generator: Adobe Illustrator 24.2.1, SVG Export Plug-In . SVG Version: 6.00 Build 0)  -->
<svg version="1.1" id="Ebene_1" xmlns="http://www.w3.org/2000/svg" xmlns:xlink="http://www.w3.org/1999/xlink" x="0px" y="0px"
	 viewBox="0 0 150 100" style="enable-background:new 0 0 150 100;" xml:space="preserve">
<style type="text/css">
	.st0{fill-rule:evenodd;clip-rule:evenodd;fill:#FFFFFF;}
	.st1{fill:none;stroke:#CCCCCC;stroke-width:2;}
	.st2{fill-rule:evenodd;clip-rule:evenodd;fill:#CCCCCC;}
	.st3{fill:none;stroke:#AAAAAA;stroke-width:2;}
	.st4{fill-rule:evenodd;clip-rule:evenodd;fill:#AAAAAA;}
</style>
<desc>Created with Sketch.</desc>
<g>
	<rect id="path-2" x="46.5" y="58.4" class="st0" width="30.3" height="22.1"/>
	<rect x="45.7" y="57.6" class="st1" width="31.9" height="23.7"/>
	<path id="path-1-path_3_" class="st0" d="M49.7,61.4c-0.1,0-0.2,0.1-0.2,0.1v16.4c0,0.1,0.1,0.1,0.2,0.1h23.9
		c0.1,0,0.2-0.1,0.2-0.1V61.5c0-0.1-0.1-0.1-0.2-0.1C73.6,61.4,49.7,61.4,49.7,61.4z"/>
	<path id="path-1-path_4_" class="st2" d="M58.5,65.3l3.6,5.9c0,0.1,0.1,0.1,0.2,0l3-2c0.1-0.1,0.3-0.1,0.4,0.1l5.5,6.1
		c0.1,0.1,0,0.3-0.1,0.3H51.7c-0.2,0-0.2-0.1-0.2-0.3l6.7-10.1C58.3,65.2,58.4,65.2,58.5,65.3z"/>
	<path id="path-1-path_5_" class="st2" d="M69.3,66.4c0.9,0,1.6-0.7,1.6-1.6s-0.7-1.5-1.6-1.5c-0.9,0-1.6,0.7-1.6,1.6
		S68.4,66.4,69.3,66.4z"/>
	<rect id="path-3" x="84.9" y="29" class="st0" width="30.3" height="22.1"/>
	<rect x="84.1" y="28.2" class="st1" width="31.9" height="23.7"/>
	<path id="path-1-path_6_" class="st0" d="M88.1,31.9c-0.1,0-0.2,0.1-0.2,0.1v16.4c0,0.1,0.1,0.1,0.2,0.1H112c0.1,0,0.2-0.1,0.2-0.1
		V32.1c0-0.1-0.1-0.1-0.2-0.1H88.1V31.9z"/>
	<path id="path-1-path_7_" class="st2" d="M96.9,35.9l3.6,5.9c0,0.1,0.1,0.1,0.2,0l3-2c0.1-0.1,0.3-0.1,0.4,0.1l5.5,6.1
		c0.1,0.1,0,0.3-0.1,0.3H90.2C90,46.3,90,46.2,90,46l6.6-10.1C96.7,35.8,96.9,35.8,96.9,35.9z"/>
	<path id="path-1-path_8_" class="st2" d="M107.7,37c0.9,0,1.6-0.7,1.6-1.6s-0.7-1.6-1.6-1.6s-1.6,0.7-1.6,1.6S106.8,37,107.7,37z"
		/>
	<rect id="path-4" x="84.9" y="58.4" class="st0" width="30.3" height="22.1"/>
	<rect x="84.1" y="57.6" class="st1" width="31.9" height="23.7"/>
	<path id="path-1-path_9_" class="st0" d="M88.1,61.4c-0.1,0-0.2,0.1-0.2,0.1v16.4c0,0.1,0.1,0.1,0.2,0.1H112c0.1,0,0.2-0.1,0.2-0.1
		V61.5c0-0.1-0.1-0.1-0.2-0.1C112,61.4,88.1,61.4,88.1,61.4z"/>
	<path id="path-1-path_10_" class="st2" d="M96.9,65.3l3.6,5.9c0,0.1,0.1,0.1,0.2,0l3-2c0.1-0.1,0.3-0.1,0.4,0.1l5.5,6.1
		c0.1,0.1,0,0.3-0.1,0.3H90.2c-0.2,0-0.2-0.1-0.2-0.3l6.6-10.1C96.7,65.2,96.9,65.2,96.9,65.3z"/>
	<path id="path-1-path_11_" class="st2" d="M107.7,66.4c0.9,0,1.6-0.7,1.6-1.6s-0.7-1.6-1.6-1.6s-1.6,0.7-1.6,1.6
		S106.8,66.4,107.7,66.4z"/>
	<g>
		<rect id="path-1" x="34.8" y="19.3" class="st0" width="59.2" height="43.9"/>
		<rect x="34" y="18.7" class="st3" width="60.8" height="45.3"/>
		<path id="path-1-path" class="st0" d="M41.6,26c-0.1,0-0.2,0.1-0.2,0.2v31.4c0,0.1,0.1,0.2,0.2,0.2h45.6c0.1,0,0.2-0.1,0.2-0.2
			V26.2c0-0.1-0.1-0.2-0.2-0.2H41.6z"/>
		<path id="path-1-path_1_" class="st4" d="M58.5,33.6l6.8,11.3c0.1,0.1,0.2,0.1,0.4,0.1l5.8-3.9c0.2-0.2,0.6-0.1,0.8,0.1l10.6,11.8
			c0.1,0.2,0,0.5-0.2,0.5H45.5c-0.4,0-0.5-0.2-0.4-0.5l12.6-19.2C58,33.2,58.4,33.2,58.5,33.6z"/>
		<path id="path-1-path_2_" class="st4" d="M79,35.6c1.7,0,3.1-1.3,3.1-3s-1.4-3-3.1-3s-3.1,1.3-3.1,3C75.9,34.2,77.4,35.6,79,35.6z
			"/>
	</g>
</g>
</svg>
