<?xml version="1.0" encoding="UTF-8"?>
<svg width="150px" height="100px" viewBox="0 0 150 100" version="1.1" xmlns="http://www.w3.org/2000/svg" xmlns:xlink="http://www.w3.org/1999/xlink">
    <!-- Generator: Sketch 53.2 (72643) - https://sketchapp.com -->
    <title>space_widget</title>
    <desc>Created with Sketch.</desc>
    <g id="Page-1" stroke="none" stroke-width="1" fill="none" fill-rule="evenodd">
        <g id="time_box_widget" transform="translate(34.000000, 23.000000)">
            <g id="table_widget">
                <rect id="Rectangle-3" stroke="#FF6B6B" stroke-linecap="square" x="1.48192771" y="12.5" width="15.8072289" height="8"></rect>
                <rect id="Rectangle-3" stroke="#FF6B6B" stroke-linecap="square" x="1.48192771" y="20.5" width="15.8072289" height="8"></rect>
                <g id="Rectangle-3">
                    <g id="path-1-link" transform="translate(0.987952, 1.000000)" fill="#FF6B6B" fill-rule="nonzero">
                        <rect id="path-1" x="0" y="0" width="15.8072289" height="10"></rect>
                    </g>
                    <rect id="Rectangle" stroke="#FF6B6B" x="0.493975904" y="0.5" width="16.7951807" height="11"></rect>
                    <rect id="Rectangle" stroke="#FFFFFF" x="0.493975904" y="0.5" width="16.7951807" height="11"></rect>
                </g>
                <rect id="Rectangle-3" stroke="#FF6B6B" stroke-linecap="square" x="17.2891566" y="12.5" width="15.8072289" height="8"></rect>
                <rect id="Rectangle-3" stroke="#FF6B6B" stroke-linecap="square" x="17.2891566" y="20.5" width="15.8072289" height="8"></rect>
                <g id="Rectangle-3" transform="translate(16.795181, 0.000000)">
                    <g id="path-2-link" transform="translate(0.987952, 1.000000)" fill="#FF6B6B" fill-rule="nonzero">
                        <rect id="path-2" x="0" y="0" width="14.8192771" height="10"></rect>
                    </g>
                    <rect id="Rectangle" stroke="#FF6B6B" x="0.493975904" y="0.5" width="15.8072289" height="11"></rect>
                    <rect id="Rectangle" stroke="#FFFFFF" x="0.493975904" y="0.5" width="15.8072289" height="11"></rect>
                </g>
                <rect id="Rectangle-3" stroke="#FF6B6B" stroke-linecap="square" x="33.0963855" y="12.5" width="15.8072289" height="8"></rect>
                <rect id="Rectangle-3" stroke="#FF6B6B" stroke-linecap="square" x="33.0963855" y="20.5" width="15.8072289" height="8"></rect>
                <g id="Rectangle-3" transform="translate(32.602410, 0.000000)">
                    <g id="path-3-link" transform="translate(0.987952, 1.000000)" fill="#FF6B6B" fill-rule="nonzero">
                        <rect id="path-3" x="0" y="0" width="14.8192771" height="10"></rect>
                    </g>
                    <rect id="Rectangle" stroke="#FF6B6B" x="0.493975904" y="0.5" width="15.8072289" height="11"></rect>
                    <rect id="Rectangle" stroke="#FFFFFF" x="0.493975904" y="0.5" width="15.8072289" height="11"></rect>
                </g>
                <rect id="Rectangle-3" stroke="#FF6B6B" stroke-linecap="square" x="48.9036145" y="12.5" width="15.8072289" height="8"></rect>
                <rect id="Rectangle-3" stroke="#FF6B6B" stroke-linecap="square" x="48.9036145" y="20.5" width="15.8072289" height="8"></rect>
                <g id="Rectangle-3" transform="translate(48.409639, 0.000000)">
                    <g id="path-4-link" transform="translate(0.987952, 1.000000)" fill="#FF6B6B" fill-rule="nonzero">
                        <rect id="path-4" x="0" y="0" width="14.8192771" height="10"></rect>
                    </g>
                    <rect id="Rectangle" stroke="#FF6B6B" x="0.493975904" y="0.5" width="15.8072289" height="11"></rect>
                    <rect id="Rectangle" stroke="#FFFFFF" x="0.493975904" y="0.5" width="15.8072289" height="11"></rect>
                </g>
                <rect id="Rectangle-3" stroke="#FF6B6B" stroke-linecap="square" x="64.7108434" y="12.5" width="15.8072289" height="8"></rect>
                <rect id="Rectangle-3" stroke="#FF6B6B" stroke-linecap="square" x="64.7108434" y="20.5" width="15.8072289" height="8"></rect>
                <rect id="Rectangle-3" stroke="#FF6B6B" stroke-linecap="square" x="1.48192771" y="28.5" width="15.8072289" height="8"></rect>
                <rect id="Rectangle-3" stroke="#FF6B6B" stroke-linecap="square" x="17.2891566" y="28.5" width="15.8072289" height="8"></rect>
                <rect id="Rectangle-3" stroke="#FF6B6B" stroke-linecap="square" x="33.0963855" y="28.5" width="15.8072289" height="8"></rect>
                <rect id="Rectangle-3" stroke="#FF6B6B" stroke-linecap="square" x="48.9036145" y="28.5" width="15.8072289" height="8"></rect>
                <rect id="Rectangle-3" stroke="#FF6B6B" stroke-linecap="square" x="64.7108434" y="28.5" width="15.8072289" height="8"></rect>
                <rect id="Rectangle-3" stroke="#FF6B6B" stroke-linecap="square" x="1.48192771" y="44.5" width="15.8072289" height="8"></rect>
                <rect id="Rectangle-3" stroke="#FF6B6B" stroke-linecap="square" x="17.2891566" y="44.5" width="15.8072289" height="8"></rect>
                <rect id="Rectangle-3" stroke="#FF6B6B" stroke-linecap="square" x="33.0963855" y="44.5" width="15.8072289" height="8"></rect>
                <rect id="Rectangle-3" stroke="#FF6B6B" stroke-linecap="square" x="48.9036145" y="44.5" width="15.8072289" height="8"></rect>
                <rect id="Rectangle-3" stroke="#FF6B6B" stroke-linecap="square" x="64.7108434" y="44.5" width="15.8072289" height="8"></rect>
                <rect id="Rectangle-3" stroke="#FF6B6B" stroke-linecap="square" x="1.48192771" y="36.5" width="15.8072289" height="8"></rect>
                <rect id="Rectangle-3" stroke="#FF6B6B" stroke-linecap="square" x="17.2891566" y="36.5" width="15.8072289" height="8"></rect>
                <rect id="Rectangle-3" stroke="#FF6B6B" stroke-linecap="square" x="33.0963855" y="36.5" width="15.8072289" height="8"></rect>
                <rect id="Rectangle-3" stroke="#FF6B6B" stroke-linecap="square" x="48.9036145" y="36.5" width="15.8072289" height="8"></rect>
                <rect id="Rectangle-3" stroke="#FF6B6B" stroke-linecap="square" x="64.7108434" y="36.5" width="15.8072289" height="8"></rect>
                <g id="Rectangle-3" transform="translate(64.216867, 0.000000)">
                    <g id="path-5-link" transform="translate(0.987952, 1.000000)" fill="#FF6B6B" fill-rule="nonzero">
                        <rect id="path-5" x="0" y="0" width="15.8072289" height="10"></rect>
                    </g>
                    <rect id="Rectangle" stroke="#FF6B6B" x="0.493975904" y="0.5" width="16.7951807" height="11"></rect>
                    <rect id="Rectangle" stroke="#FFFFFF" x="0.493975904" y="0.5" width="16.7951807" height="11"></rect>
                </g>
            </g>
            <polyline id="svg_17" fill="#FE6B6B" fill-rule="nonzero" points="38.5301205 24.1523553 39.1670658 23.3905787 40.911967 25.476447 43.820661 22 44.4578313 22.7612382 40.9119669 27"></polyline>
            <polyline id="svg_17" fill="#FE6B6B" fill-rule="nonzero" points="70.1445783 24.1523553 70.7815236 23.3905787 72.5264248 25.476447 75.4351188 22 76.0722892 22.7612382 72.5264247 27"></polyline>
            <polyline id="svg_17" fill="#FE6B6B" fill-rule="nonzero" points="6.91566265 32.1523553 7.55260794 31.3905787 9.29750918 33.476447 12.2062032 30 12.8433735 30.7612382 9.29750899 35"></polyline>
            <polyline id="svg_17" fill="#FE6B6B" fill-rule="nonzero" points="38.5301205 32.1523553 39.1670658 31.3905787 40.911967 33.476447 43.820661 30 44.4578313 30.7612382 40.9119669 35"></polyline>
            <polyline id="svg_17" fill="#FE6B6B" fill-rule="nonzero" points="22.7228916 24.1523553 23.3598368 23.3905787 25.1047381 25.476447 28.0134321 22 28.6506024 22.7612382 25.104738 27"></polyline>
            <polyline id="svg_17" fill="#FE6B6B" fill-rule="nonzero" points="54.3373494 24.1523553 54.9742947 23.3905787 56.7191959 25.476447 59.6278899 22 60.2650602 22.7612382 56.7191958 27"></polyline>
            <polyline id="svg_17" fill="#FE6B6B" fill-rule="nonzero" points="22.7228916 32.1523553 23.3598368 31.3905787 25.1047381 33.476447 28.0134321 30 28.6506024 30.7612382 25.104738 35"></polyline>
        </g>
    </g>
</svg>