<?xml version="1.0" encoding="utf-8"?>
<!-- Generator: Adobe Illustrator 22.0.0, SVG Export Plug-In . SVG Version: 6.00 Build 0)  -->
<svg version="1.1" id="Ebene_1" xmlns="http://www.w3.org/2000/svg" xmlns:xlink="http://www.w3.org/1999/xlink" x="0px" y="0px"
	 viewBox="0 0 150 100" style="enable-background:new 0 0 150 100;" xml:space="preserve">
<style type="text/css">
	.st0{fill:none;stroke:#FF6B6B;stroke-width:2;}
	.st1{fill:#FE6F6F;}
	.st2{fill:#FE6B6B;}
</style>
<title>video</title>
<desc>Created with Sketch.</desc>
<g id="Page-1">
	<g id="video">
		<g id="Group-2" transform="translate(28.000000, 26.000000)">
			<rect id="Rectangle-9" x="-1" y="-1" class="st0" width="97" height="49"/>
		</g>
	</g>
</g>
<g>
	<path class="st1" d="M56.4,43.7c-0.7,0-1.7-0.5-1.6-2c0-1.3,2-3,3.5-3c1.2,0,1.9,0.8,2,2C60.5,42.2,58.7,43.7,56.4,43.7z"/>
	<path class="st2" d="M59.9,49.2c0.6-0.5,1.3-1.1,1.9-1.6c2.7-2.3,3.6-2,4.7,1.5c1.6-1.1,2.9-2.4,4.9-2.6c2.2-0.3,3.5,0.7,3.9,3.2
		c1.3-1.2,2.2-2.2,3.5-2.8c1.3-0.5,2.7-0.8,3.9,0c1.3,0.9,1.3,2.3,1.1,3.7c-0.2,1.5-0.6,3-0.8,4.5c-0.1,0.7-0.3,1.7,0.8,1.8
		c1.1,0.1,1-0.8,1.1-1.5c0.7-5.5,5.3-9.3,10.7-9c1.4,0.1,2.6,0.4,3.2,1.7c0.7,1.4,0.4,2.8-0.5,4.1c-1.6,2.4-4.2,3.3-6.7,4.3
		c-0.3,0.1-0.6,0.2-0.9,0.3c1.8,1.2,6.9,0.7,8.2-0.7c0.4-0.5,0.3-1,0.3-1.5c0.5-4.4,4.2-8.1,8.7-8.4c3.6-0.3,6.1,1.9,6.4,5.5
		c0.3,4.9-3.9,9.6-8.8,9.8c-1.9,0.1-3.7-0.4-4.9-1.9c-0.7-1-1.3-0.8-2.2-0.3c-2.2,1.2-4.6,1.9-7.1,2.1c-1.2,0.1-2.7,0.2-3.5-0.6
		c-1.8-1.7-3.2-0.9-5.1-0.1c-3.4,1.6-5.3,0.2-4.8-3.6c0.2-1.3,0.5-2.5,0.7-3.8c0.1-0.7,0.3-1.6-0.5-2c-1-0.5-1.5,0.4-2,1
		c-1.3,1.9-2.2,3.9-2.4,6.3c-0.1,0.8,1,2.4-0.8,2.5c-1.7,0.1-3.2-0.6-3.5-2.5c-0.2-1.2,0-2.4,0.2-3.6c0.2-1.2,1.3-3.1-0.3-3.6
		c-1.7-0.6-2.1,1.5-2.7,2.7c-0.8,1.5-0.9,3.2-0.9,4.9c0,0.7,0.5,1.7-0.3,2.1c-0.9,0.5-2.2,0.2-2.7-0.6c-1.3-1.8-2.3-1.1-3.6-0.1
		c-0.7,0.5-1.5,0.7-2.3,0.9c-2.6,0.5-4-0.8-3.6-3.4c0.3-1.8,0.8-3.5,1.2-5.3c0.1-0.6,0.6-1.5-0.2-1.8c-0.8-0.3-1.3,0.4-1.7,1.2
		c-1.4,3-3.3,5.6-5.7,7.8c-3,2.8-4.9,2.3-6.1-1.5c-0.6-2-1.1-4.1-1.8-6.1c-0.3-0.9-0.7-2-2.1-1.1c-0.4,0.3-0.7,0.1-1-0.3
		c-0.3-0.4-0.1-0.7,0.2-1c0.1-0.1,0.2-0.2,0.3-0.3c1.6-1.2,2.7-3.6,5-2.8c2.2,0.7,1.6,3.2,2,4.9c0.2,1,0.4,1.9,0.7,2.9
		c0.2,0.6,0.3,1.3,1,1.4c0.7,0.1,1-0.6,1.3-1.1c0.3-0.5,0.6-1,0.9-1.6c1.1-2.2,0.8-2.8-1.6-3.3c1-2.7,2.5-3.8,4.8-3.6
		c0.7,0.1,1.5,0.2,1.8,0.8c0.7,1.9,1.5,1.3,2.7,0.3c2.3-1.9,3.6-1.2,4.3,2.1c0,1.8-0.2,3.6-0.5,5.4c-0.1,0.5-0.2,1.1,0.5,1.4
		c0.7,0.3,1.2-0.3,1.3-0.9c0.3-1.5,1.6-3.1-0.9-4.1C58.9,50.6,58.9,49.6,59.9,49.2z M108.5,49.3c-1.1-0.4-2,0.4-2.7,1.2
		c-1.3,1.5-2,3.2-1.9,5.2c0,0.8,0.3,1.7,1.2,2c0.9,0.3,1.6,0,2.3-0.6c1.4-1.4,2.1-3.1,2.3-5C109.6,51,109.7,49.8,108.5,49.3z
		 M94.3,50.9c0-1-0.5-1.5-1.4-1.1c-1.7,0.7-2.5,2.3-3,4c-0.2,0.7,0.2,0.8,1.4,0.7C91.8,54.5,94.3,52,94.3,50.9z"/>
</g>
</svg>
