<?xml version="1.0" encoding="UTF-8"?>
<svg width="80px" height="61px" viewBox="0 0 80 61" version="1.1" xmlns="http://www.w3.org/2000/svg" xmlns:xlink="http://www.w3.org/1999/xlink">
    <!-- Generator: Sketch 53.2 (72643) - https://sketchapp.com -->
    <title>wallet copy</title>
    <desc>Created with Sketch.</desc>
    <g id="Desktop-1440px" stroke="none" stroke-width="1" fill="none" fill-rule="evenodd" stroke-linecap="round" stroke-linejoin="round">
        <g id="Homepage" transform="translate(-680.000000, -1233.000000)" stroke="#4DE9BF" stroke-width="1.5">
            <g id="wallet-copy" transform="translate(680.000000, 1230.000000)">
                <path d="M78.2569086,48.4530667 L78.2704772,51.0255723 C78.2888322,53.595796 76.1504968,55.6542337 73.4943514,55.6224867 L16.4522367,54.9502251" id="Stroke-1" transform="translate(47.361416, 52.037958) rotate(-15.000000) translate(-47.361416, -52.037958) "></path>
                <path d="M9.93212838,14.2025012 L64.4118773,14.8446658 C67.0672138,14.8756298 69.2352846,16.9843046 69.2528306,19.5537452 L69.2837805,24.0132378" id="Stroke-3" transform="translate(39.607954, 19.107870) rotate(-15.000000) translate(-39.607954, -19.107870) "></path>
                <path d="M45.4429013,4.83387877 L53.9114562,4.93378333 C56.5675942,4.96475481 58.7356725,7.07420523 58.7532185,9.64364584 L58.7601506,11.1947379" id="Stroke-5" transform="translate(52.101526, 8.014308) rotate(-15.000000) translate(-52.101526, -8.014308) "></path>
                <path d="M14.4440835,63.486195 L11.2381133,63.44777 C8.58197532,63.4167985 6.414706,61.3081312 6.39635845,58.7386831 L6.12656854,20.1776245 C6.10821351,17.6074009 8.24655639,15.5497387 10.9027018,15.5814858 L19.56361,15.6831839" id="Stroke-7" transform="translate(12.845031, 39.533659) rotate(-15.000000) translate(-12.845031, -39.533659) "></path>
                <path d="M13.4772437,16.709722 L25.4998268,5.14724373 C27.3650192,3.35226026 30.409886,3.3884075 32.3004885,5.22849384 L44.495174,17.0989924" id="Stroke-9" transform="translate(28.986209, 10.461677) rotate(-15.000000) translate(-28.986209, -10.461677) "></path>
                <path d="M74.9898065,37.9855464 L59.844833,37.8071013 C55.5704782,37.7563875 52.049776,34.3306859 52.0211485,30.1953797 C51.9925135,26.0592979 55.4656279,22.7166475 59.7399826,22.7673612 L74.8841547,22.9457989 C76.7219749,22.9675889 78.2347775,24.4396609 78.2479066,26.2180364 L78.3080911,34.7926774 C78.3204113,36.5702698 76.8268252,38.0073289 74.9898065,37.9855464 Z" id="Stroke-11" transform="translate(65.164570, 30.376291) rotate(-15.000000) translate(-65.164570, -30.376291) "></path>
                <path d="M57.8520317,31.4774894 C57.8622761,32.9564896 59.1097296,34.1701679 60.6373651,34.1875145 C62.1658096,34.2056442 63.3965747,33.0220539 63.3863303,31.5430537 C63.3760859,30.0640535 62.1286398,28.8511508 60.6001954,28.8330211 C59.0717509,28.8148914 57.8417948,29.9992648 57.8520317,31.4774894 Z" id="Stroke-13" transform="translate(60.619181, 31.510268) rotate(-15.000000) translate(-60.619181, -31.510268) "></path>
            </g>
        </g>
    </g>
</svg>