<?xml version="1.0" encoding="utf-8"?>
<!-- Generator: Adobe Illustrator 22.0.0, SVG Export Plug-In . SVG Version: 6.00 Build 0)  -->
<svg version="1.1" id="Ebene_1" xmlns="http://www.w3.org/2000/svg" xmlns:xlink="http://www.w3.org/1999/xlink" x="0px" y="0px"
	 viewBox="0 0 150 100" style="enable-background:new 0 0 150 100;" xml:space="preserve">
<style type="text/css">
	.st0{fill:none;stroke:#FF6B6B;stroke-width:2;}
	.st1{fill:#FF6B6B;}
</style>
<title>video</title>
<desc>Created with Sketch.</desc>
<g id="Page-1">
	<g id="video">
		<g id="Group-2" transform="translate(28.000000, 26.000000)">
			<rect id="Rectangle-9" x="-1.5" y="-1" class="st0" width="97" height="49"/>
		</g>
	</g>
</g>
<g>
	<path class="st1" d="M51.3,58.2c-0.3-0.2-0.4-0.6-0.4-1v-9.1c0-0.4,0.1-0.7,0.4-0.9c0.3-0.2,0.6-0.3,1-0.3c0.5,0,0.8,0.1,1.1,0.3
		s0.4,0.5,0.4,0.9v9.1c0,0.4-0.1,0.8-0.4,1.1c-0.3,0.3-0.6,0.4-1.1,0.4C51.9,58.6,51.5,58.5,51.3,58.2z M60.2,58.3
		c0,1,0,1.7,0.4,2.2c0.4,0.5,1,0.8,1.8,0.8c0.6,0,1.3-0.2,2-0.5c0.7-0.3,1.3-0.9,2-1.6V61h3.4V44.4h-3.4V57c-0.3,0.4-0.7,0.7-1,0.9
		c-0.4,0.2-0.7,0.3-0.9,0.3c-0.3,0-0.6-0.1-0.7-0.3s-0.2-0.5-0.2-0.9V44.4h-3.4V58.3L60.2,58.3z M47.4,56.8c0,1.4,0.4,2.5,1.3,3.4
		c0.9,0.8,2.1,1.3,3.6,1.3s2.8-0.4,3.6-1.2c0.9-0.8,1.3-1.9,1.3-3.3v-8.6c0-1.3-0.4-2.3-1.3-3.1c-0.9-0.9-2-1.3-3.4-1.3
		c-1.5,0-2.8,0.4-3.7,1.1c-0.9,0.8-1.4,1.8-1.4,3.1C47.4,48.2,47.4,56.8,47.4,56.8z M34.3,38.5l4.6,13.6V61h3.8v-9.3l4.5-13.2h-3.9
		l-2.4,9h-0.2l-2.5-9H34.3z"/>
	<g>
		<polygon class="st1" points="69.7,38.5 81.1,38.5 81.1,41.8 77.3,41.8 77.3,61.1 73.5,61.1 73.5,41.8 69.7,41.8 		"/>
		<path class="st1" d="M88.8,44.4h3.3v16.6h-3.3v-1.9c-0.7,0.7-1.2,1.2-1.9,1.5c-0.7,0.3-1.3,0.6-2,0.6c-0.8,0-1.3-0.2-1.8-0.8
			c-0.3-0.6-0.6-1.2-0.6-2.2V44.4H86v12.8c0,0.4,0.1,0.7,0.2,0.9c0.1,0.2,0.3,0.2,0.7,0.2c0.2,0,0.6-0.1,0.9-0.3
			c0.3-0.2,0.8-0.6,1-0.9V44.4H88.8z"/>
		<path class="st1" d="M101,44.2c-0.6,0-1,0.1-1.5,0.4c-0.6,0.2-1,0.7-1.4,1.1v-7.3h-3.3v22.6H98v-1.3c0.4,0.6,0.9,0.9,1.4,1.1
			c0.6,0.2,1.1,0.3,1.8,0.3c1,0,1.8-0.3,2.2-1c0.6-0.7,0.8-1.5,0.8-2.8v-9.3c0-1.3-0.2-2.4-0.9-3.1C102.8,44.5,102,44.2,101,44.2z
			 M100.6,57.1c0,0.6,0,0.9-0.2,1.1c-0.2,0.2-0.4,0.3-0.9,0.3c-0.3,0-0.6-0.1-0.8-0.2c-0.2-0.1-0.6-0.3-0.8-0.6V47.4
			c0.2-0.2,0.4-0.4,0.7-0.6s0.4-0.1,0.7-0.1c0.4,0,0.8,0.1,1,0.4c0.2,0.3,0.3,0.7,0.3,1.3V57.1L100.6,57.1z M111,44
			c-1.5,0-2.6,0.4-3.6,1.3c-1,0.9-1.4,2.1-1.4,3.5v7.5c0,1.7,0.4,2.9,1.3,3.7c0.9,0.9,2,1.3,3.5,1.3c1.7,0,2.9-0.4,3.7-1.3
			c0.9-0.9,1.2-2.2,1.2-3.9v-0.8h-3.4v0.8c0,1-0.1,1.7-0.3,1.9c-0.2,0.3-0.6,0.4-1.2,0.4c-0.6,0-0.9-0.2-1.1-0.6
			c-0.2-0.3-0.3-1-0.3-1.9V53h6.4v-4.2c0-1.5-0.4-2.8-1.2-3.6C113.6,44.4,112.5,44,111,44z M112.3,50.5h-3v-1.7
			c0-0.7,0.1-1.2,0.3-1.5c0.2-0.3,0.7-0.4,1.1-0.4c0.6,0,0.9,0.1,1.1,0.4c0.2,0.3,0.3,0.8,0.3,1.5v1.7H112.3z"/>
	</g>
</g>
</svg>
